<svg width="150" height="150" viewBox="0 0 150 150" fill="none" xmlns="http://www.w3.org/2000/svg">
<circle cx="75" cy="75" r="74.5" stroke="white"/>
<path d="M59.4369 69.678H59.4909C60.6429 66.438 61.7949 63.072 62.9109 59.868H64.8369L60.4089 72H58.5369L54.0729 59.868H55.9989L59.4369 69.678ZM68.9174 72H67.1174V59.868H68.9174V72ZM80.6076 72H72.2556V59.868H80.3736V61.542H74.0556V64.872H80.1396V66.546H74.0556V70.326H80.6076V72ZM88.0722 59.868H89.8002L92.1582 68.868H92.1942L93.9042 59.868H95.7582L93.3822 72H91.2762L88.9362 62.73H88.9002L86.5962 72H84.4722L82.0962 59.868H83.9862L85.6602 68.868H85.6962L88.0722 59.868ZM61.7393 90V81.18H61.6853L58.6433 90H57.3833L54.3953 81.216H54.3413V90H52.5593V77.868H54.9533L58.0313 87.066L61.2173 77.868H63.4673V90H61.7393ZM76.0082 83.934C76.0082 87.624 74.2262 90.162 70.7342 90.162C67.2602 90.162 65.4782 87.66 65.4782 83.934C65.4782 80.19 67.2422 77.652 70.7342 77.652C74.2262 77.652 76.0082 80.19 76.0082 83.934ZM67.2962 83.934C67.2962 86.364 68.1962 88.506 70.7342 88.506C73.3262 88.506 74.1902 86.364 74.1902 83.934C74.1902 81.504 73.3262 79.326 70.7342 79.326C68.1962 79.326 67.2962 81.504 67.2962 83.934ZM79.83 79.542V83.106H81.864C83.25 83.088 85.05 82.872 85.05 81.288C85.05 79.542 83.25 79.524 82.08 79.542H79.83ZM84.51 83.718V83.754C85.896 83.988 86.49 85.428 86.562 86.418C86.67 87.786 86.814 89.622 87.246 90H85.266C84.87 89.028 84.834 87.804 84.744 87.12C84.528 85.428 84.384 84.816 82.692 84.78H79.83V90H78.03V77.868H82.332C84.618 77.868 86.886 78.642 86.886 81.18C86.886 82.692 85.536 83.556 84.51 83.718ZM97.8781 90H89.5261V77.868H97.6441V79.542H91.3261V82.872H97.4101V84.546H91.3261V88.326H97.8781V90Z" fill="white"/>
</svg>
