<svg width="494" height="236" viewBox="0 0 494 236" fill="none" xmlns="http://www.w3.org/2000/svg">
<path d="M5.568 51C5.952 48.376 6.08 46.072 6.08 42.552V9.528C6.08 6.008 5.952 3.704 5.568 1.08H31.424L29.76 3.64C23.68 2.296 18.496 1.976 13.888 1.976H9.984V25.4H13.952C17.984 25.4 20.928 25.336 25.792 24.824V27C20.928 26.488 17.984 26.424 13.952 26.424H9.984V42.552C9.984 46.072 10.112 48.376 10.496 51H5.568ZM47.255 51.832C37.975 51.832 30.807 44.92 30.807 34.616C30.807 24.312 37.975 17.464 47.255 17.464C56.535 17.464 63.703 24.376 63.703 34.616C63.703 44.856 56.535 51.832 47.255 51.832ZM34.839 34.552C34.839 44.728 39.703 51 47.255 51C54.743 51 59.671 44.728 59.671 34.552C59.671 24.504 54.807 18.296 47.255 18.296C39.703 18.296 34.839 24.44 34.839 34.552ZM70.477 51C70.861 48.312 70.989 45.944 70.989 42.552V9.144C70.989 5.752 70.861 3.384 70.477 0.695999H75.021C74.637 3.384 74.509 5.752 74.509 9.144V42.552C74.509 45.944 74.637 48.312 75.021 51H70.477ZM83.602 51C83.986 48.312 84.114 45.944 84.114 42.552V9.144C84.114 5.752 83.986 3.384 83.602 0.695999H88.146C87.762 3.384 87.634 5.752 87.634 9.144V42.552C87.634 45.944 87.762 48.312 88.146 51H83.602ZM111.443 51.832C102.163 51.832 94.9945 44.92 94.9945 34.616C94.9945 24.312 102.163 17.464 111.443 17.464C120.723 17.464 127.891 24.376 127.891 34.616C127.891 44.856 120.723 51.832 111.443 51.832ZM99.0265 34.552C99.0265 44.728 103.891 51 111.443 51C118.931 51 123.859 44.728 123.859 34.552C123.859 24.504 118.995 18.296 111.443 18.296C103.891 18.296 99.0265 24.44 99.0265 34.552ZM150.881 26.232C149.985 23.096 149.089 20.664 148.065 18.296H153.057C153.185 20.92 153.697 23.16 154.465 25.912L160.801 47.736L166.241 32.12C167.329 29.112 168.033 26.872 168.033 25.016C168.033 22.072 166.689 21.56 166.689 19.576C166.689 18.36 167.521 17.784 168.417 17.784C168.993 17.784 169.633 17.976 170.081 18.424C170.145 19.192 170.209 20.024 170.145 20.856C170.081 23.736 169.312 26.424 167.905 30.52L162.849 45.048C161.953 47.416 161.057 49.528 161.057 51H157.985L151.457 28.344L145.953 45.368C145.312 47.544 144.801 49.656 144.865 51H141.857L133.536 26.232C132.513 23.096 131.297 20.664 130.273 18.296H135.329C135.521 20.92 136.097 23.16 137.057 25.912L144.417 47.096L151.009 26.68L150.881 26.232Z" fill="white"/>
<path d="M30.208 134.088C13.248 134.088 2.816 122.12 2.816 108.168C2.816 94.152 13.184 82.312 30.208 82.312C47.296 82.312 57.664 94.152 57.664 108.168C57.664 122.12 47.232 134.088 30.208 134.088ZM13.184 108.168C13.184 123.4 20.096 132.68 30.208 132.68C40.384 132.68 47.296 123.4 47.296 108.168C47.296 92.872 40.448 83.656 30.208 83.656C20.032 83.656 13.184 92.872 13.184 108.168ZM73.7465 134.024C68.1145 134.024 64.6585 130.184 64.6585 123.144V108.552C64.6585 105.16 64.5305 102.792 64.1465 100.104H73.2345C72.8505 102.792 72.7225 105.16 72.7225 108.552V123.208C72.7225 128.008 74.5785 130.44 77.9705 130.44C81.1065 130.44 84.2425 128.2 86.2905 124.68V124.552V108.552C86.2905 105.16 86.1625 102.792 85.7785 100.104H94.8025C94.4185 102.792 94.2905 105.16 94.2905 108.552V124.552C94.2905 127.944 94.4185 130.312 94.8025 133H85.7785C86.0985 130.888 86.2265 128.968 86.2905 126.664C83.4745 131.08 78.6745 134.024 73.7465 134.024ZM102.971 133C103.355 130.312 103.483 127.944 103.483 124.552V108.552C103.483 105.16 103.355 102.792 102.971 100.104H111.995C111.611 102.792 111.483 105.16 111.483 108.552V110.28C114.107 102.216 118.779 99.208 125.371 99.208C125.755 100.04 126.011 100.872 126.011 101.64C126.011 103.752 124.475 105.672 121.851 105.672C117.883 105.672 113.467 106.312 111.483 112.456V124.552C111.483 127.944 111.611 130.312 111.995 133H102.971ZM144.686 133C145.07 130.376 145.198 128.072 145.198 124.552V91.528C145.198 88.008 145.07 85.704 144.686 83.08H161.326C173.486 83.08 180.142 87.112 180.142 94.472C180.142 100.872 175.022 104.2 166.51 105.224C176.622 106.248 183.662 110.856 183.662 119.176C183.662 127.816 176.302 133 163.63 133H144.686ZM154.606 131.72H160.942C168.366 131.72 173.678 126.92 173.678 118.984C173.678 111.496 168.814 105.992 161.07 105.992H154.606V131.72ZM154.606 104.712H159.086C167.022 104.712 170.862 101.064 170.862 94.728C170.862 87.752 166.574 84.36 159.086 84.36H154.606V104.712ZM189.784 133C190.168 130.312 190.296 127.944 190.296 124.552V108.552C190.296 105.16 190.168 102.792 189.784 100.104H198.808C198.424 102.792 198.296 105.16 198.296 108.552V110.28C200.92 102.216 205.592 99.208 212.184 99.208C212.568 100.04 212.824 100.872 212.824 101.64C212.824 103.752 211.288 105.672 208.664 105.672C204.696 105.672 200.28 106.312 198.296 112.456V124.552C198.296 127.944 198.424 130.312 198.808 133H189.784ZM223.077 134.088C218.021 134.088 213.541 130.824 213.541 125.32C213.541 118.92 219.429 116.936 225.381 115.016C230.628 113.352 236.261 111.752 236.261 105.864C236.261 102.408 234.085 100.296 230.885 100.296C226.725 100.296 224.421 103.688 223.077 105.672C221.925 107.336 220.773 108.68 218.597 108.68C216.485 108.68 215.333 107.208 215.269 103.944C219.749 101.064 225.317 99.08 230.501 99.08C238.501 99.08 243.877 103.176 243.877 110.792V122.44C243.877 127.624 244.197 129.416 245.349 133H236.581C236.197 130.056 236.005 126.6 236.005 123.272C233.573 130.888 228.005 134.088 223.077 134.088ZM221.477 123.336C221.477 127.56 224.229 129.672 227.301 129.672C231.269 129.672 236.005 126.088 236.005 117.64V110.856C234.725 113.16 232.101 113.992 228.773 115.336C224.485 117.32 221.477 119.176 221.477 123.336ZM273.855 133C274.239 130.312 274.367 127.944 274.367 124.552V109.896C274.367 105.032 272.447 102.664 269.055 102.664C265.919 102.664 262.719 104.904 260.671 108.488V108.552V124.552C260.671 127.944 260.799 130.312 261.183 133H252.159C252.543 130.312 252.671 127.944 252.671 124.552V108.552C252.671 105.16 252.543 102.792 252.159 100.104H261.183C260.863 102.216 260.735 104.136 260.671 106.568C263.487 102.088 268.351 99.08 273.279 99.08C278.911 99.08 282.367 102.92 282.367 109.896V124.552C282.367 127.944 282.495 130.312 282.879 133H273.855ZM302.619 134.152C294.747 134.152 288.987 126.856 288.987 116.616C288.987 107.144 294.171 98.952 302.427 98.952C307.035 98.952 311.451 101.64 314.267 106.76V90.888C314.267 87.496 314.139 85.128 313.755 82.44H322.843C322.459 85.128 322.331 87.496 322.331 90.888V122.44C322.331 128.136 322.779 129.736 323.803 133H314.715C314.459 130.056 314.331 128.136 314.267 125.448C312.411 130.312 308.315 134.152 302.619 134.152ZM297.371 116.808C297.371 125.192 301.275 130.568 306.011 130.568C309.851 130.568 313.499 127.048 314.267 121.416V108.488C312.283 104.904 309.147 102.792 306.011 102.792C300.699 102.792 297.371 109 297.371 116.808ZM344.466 134.088C337.682 134.088 330.578 130.952 328.658 123.72C329.49 122.184 330.642 121.48 331.986 121.48C333.65 121.48 335.186 122.568 336.018 124.424C337.81 130.376 341.394 132.744 345.298 132.744C348.818 132.744 351.634 130.888 351.634 127.752C351.634 119.368 330.706 119.176 330.706 107.848C330.706 102.344 335.634 99.08 342.802 99.08C348.114 99.08 353.682 101.064 357.522 104.648C357.458 106.824 356.306 108.488 354.194 108.488C352.274 108.488 351.058 107.144 350.098 105.672C348.306 102.728 345.938 100.36 342.29 100.36C339.026 100.36 336.594 102.088 336.594 104.84C336.594 112.904 358.226 113.16 358.226 124.424C358.226 130.696 351.506 134.088 344.466 134.088Z" fill="white"/>
<path d="M3.192 187.424C3.192 191.024 4.488 193.424 7.344 193.424C10.104 193.424 11.472 191.024 11.472 187.424C11.472 183.776 10.104 181.424 7.344 181.424C4.488 181.424 3.192 183.776 3.192 187.424ZM1.632 187.424C1.632 182.984 3.672 180.008 7.344 180.008C10.944 180.008 13.008 182.984 13.008 187.424C13.008 191.84 10.944 194.792 7.344 194.792C3.672 194.792 1.632 191.84 1.632 187.424ZM18.504 198.728H16.896V178.616H18.504V186.704H22.392V188.096H18.504V198.728ZM42.9988 196.568H23.3188V195.176H32.3428V190.184H25.8868V180.032H40.4308V190.184H33.9748V195.176H42.9988V196.568ZM38.8468 188.792V181.424H27.4948V188.792H38.8468ZM55.4173 193.016L55.6573 194.384C53.5453 194.792 50.8813 195.032 47.1853 195.032H46.5133V186.92H52.5133V181.64H46.5133V180.272H54.1453V188.264H48.1453V193.64C51.1213 193.616 53.4493 193.4 55.4173 193.016ZM62.4733 198.728V178.616H64.1053V198.728H62.4733ZM59.6413 198.392H58.0333V188.024H54.8413V186.632H58.0333V178.856H59.6413V198.392ZM80.2157 181.424H77.7437C77.7197 184.976 77.5517 189.872 77.3117 193.088C78.8477 192.992 80.3117 192.8 81.7037 192.488L81.9437 193.856C79.4477 194.456 76.4237 194.552 73.1117 194.552H68.0957V193.184H71.1917C70.9997 189.968 70.8317 185.024 70.8077 181.424H68.5517V180.032H80.2157V181.424ZM73.1357 193.184C74.0237 193.184 74.9357 193.184 75.8237 193.16C76.0877 189.824 76.1597 184.616 76.1597 181.424H72.3917C72.3917 184.616 72.4637 189.872 72.7277 193.184H73.1357ZM79.8797 187.616V186.248H83.6957V178.616H85.3037V198.728H83.6957V187.616H79.8797ZM95.2826 186.584H94.9466C94.9226 186.896 94.7306 187.544 94.5386 188.096C94.0586 189.56 92.5466 192.2 88.9946 194.984L87.8906 193.952C92.0906 190.76 94.3226 186.776 94.3226 182.648V180.032H95.8586V182.648C95.8586 186.728 98.0186 190.616 101.907 193.52L100.755 194.6C97.6106 191.936 96.1946 189.632 95.6666 188.144C95.4506 187.544 95.3306 186.896 95.2826 186.584ZM105.939 198.728H104.331V178.616H105.939V198.728ZM127.14 190.76H125.532V188.888C123.228 189.536 120.516 189.752 116.004 189.752H109.812V188.408H112.932C112.716 186.272 112.548 182.96 112.524 180.944H109.932V179.552H122.172V180.944H119.82C119.772 182.936 119.628 186.2 119.412 188.36C121.932 188.24 123.828 188 125.532 187.496V178.616H127.14V190.76ZM116.028 188.408H117.924C118.14 186.176 118.188 182.816 118.212 180.944H114.108C114.108 182.816 114.18 186.2 114.42 188.408H116.028ZM127.14 199.232H125.532V193.64H112.692V192.272H127.14V199.232ZM131.863 184.808C131.863 181.712 133.927 179.552 137.647 179.552C141.295 179.552 143.431 181.712 143.431 184.808C143.431 187.928 141.295 190.088 137.647 190.088C133.927 190.088 131.863 187.928 131.863 184.808ZM148.231 198.728H146.623V194.672C143.911 195.296 140.431 195.464 136.495 195.464H130.663V194.072H136.519C140.119 194.072 143.719 193.976 146.623 193.28V178.616H148.231V198.728ZM133.327 184.808C133.327 187.232 134.935 188.648 137.647 188.648C140.311 188.648 141.967 187.232 141.967 184.808C141.967 182.456 140.311 180.92 137.647 180.92C134.935 180.92 133.327 182.456 133.327 184.808ZM177.999 196.568H158.319V195.176H177.999V196.568ZM175.551 191.048H160.791V180.152H162.375V184.448H173.943V180.152H175.551V191.048ZM173.943 189.68V185.816H162.375V189.68H173.943ZM183.265 186.608V190.568H184.369C187.633 190.568 190.177 190.376 192.265 189.992V178.88H193.801V185.336H196.969V178.616H198.505V194.984H196.969V186.704H193.801V194.744H192.265V191.384C190.225 191.72 187.681 191.96 184.249 191.96H181.633V185.288H188.113V181.184H181.633V179.792H189.721V186.608H183.265ZM184.297 193.928H185.905V197.72H198.985V199.112H184.297V193.928ZM221.71 196.568H202.03V195.176H221.71V196.568ZM219.694 188.624L219.91 190.016C217.99 190.496 215.782 190.64 212.158 190.64H204.502V180.272H219.262V181.664H206.11V189.248H212.182C215.398 189.248 217.318 189.152 219.694 188.624ZM241.16 184.856L241.376 186.248C239.456 186.728 237.248 186.872 233.624 186.872H226.136V179.216H227.744V185.48H233.648C236.864 185.48 238.784 185.384 241.16 184.856ZM243.512 191.432H223.592V190.04H243.512V191.432ZM226.136 193.352H227.744V197.84H241.712V199.232H226.136V193.352ZM263.928 181.184H259.08V181.88C259.08 184.856 260.28 187.688 264.384 190.064L263.208 191.192C260.976 189.824 259.92 188.552 259.2 187.448C258.792 186.824 258.552 186.248 258.456 185.744H258.144C258.048 186.272 257.784 186.848 257.472 187.448C256.728 188.72 255.456 190.28 253.248 191.792L251.952 190.76C256.056 188.12 257.472 184.928 257.472 181.88V181.184H252.672V179.792H263.928V181.184ZM262.608 185.984V184.592H267.912V178.616H269.52V194.744H267.912V185.984H262.608ZM255.312 193.352H256.92V197.72H270V199.112H255.312V193.352ZM290.853 186.104L290.997 187.472C289.341 187.736 287.397 187.832 284.517 187.832H283.821V189.992H292.965V191.432H273.045V189.992H282.189V187.832H275.589V179.336H290.469V180.68H277.197V182.984H290.469V184.352H277.197V186.488H284.541C287.181 186.488 288.957 186.416 290.853 186.104ZM275.229 196.424C275.229 194.144 277.773 193.016 283.005 193.016C288.165 193.016 290.781 194.144 290.781 196.424C290.781 198.68 288.165 199.808 283.005 199.808C277.773 199.808 275.229 198.68 275.229 196.424ZM276.861 196.424C276.861 197.936 279.237 198.512 283.005 198.512C286.749 198.512 289.149 197.936 289.149 196.424C289.149 194.888 286.749 194.336 283.005 194.336C279.237 194.336 276.861 194.888 276.861 196.424ZM307.922 188.744L306.818 190.016C304.274 188.864 303.098 187.688 302.45 186.848C301.946 186.152 301.802 185.624 301.73 185.216H301.346C301.298 185.624 301.106 186.272 300.722 186.896C299.954 188.192 298.802 189.512 295.946 191.024L294.842 189.872C300.242 187.208 300.698 183.584 300.698 181.304V181.184H295.562V179.792H307.298V181.184H302.33V181.304C302.33 183.512 302.786 186.728 307.922 188.744ZM312.65 199.232H311.042V193.64H298.202V192.272H312.65V199.232ZM312.65 190.76H311.042V185.12H306.026V183.776H311.042V178.616H312.65V190.76ZM320.466 193.232H322.074V197.72H335.154V199.112H320.466V193.232ZM334.698 194.744H333.066V178.616H334.698V194.744ZM318.618 185.048C318.618 187.928 320.61 189.152 322.626 189.152C324.618 189.152 326.634 187.928 326.634 185.048C326.634 182.192 324.618 180.944 322.626 180.944C320.61 180.944 318.618 182.192 318.618 185.048ZM317.106 185.048C317.106 181.424 319.722 179.552 322.626 179.552C325.482 179.552 328.122 181.424 328.122 185.048C328.122 188.672 325.482 190.52 322.626 190.52C319.722 190.52 317.106 188.672 317.106 185.048ZM361.876 188.432H347.116V179.456H348.724V182.912H360.268V179.456H361.876V188.432ZM364.228 192.608H359.356L359.524 199.088H357.94L357.796 192.608H351.676C351.604 194.936 351.172 197.096 350.404 198.968L348.772 198.512C349.588 196.664 349.996 194.6 350.044 192.608H344.764V191.216H364.228V192.608ZM360.268 187.088V184.256H348.724V187.088H360.268ZM371.228 194.792H367.724V180.032H377.972V181.424H369.356V186.8H377.564V188.144H369.356V193.424H371.252C375.332 193.424 379.436 193.304 382.532 192.344V178.616H384.14V198.728H382.532V193.76C379.652 194.576 375.716 194.792 371.228 194.792ZM388.855 184.808C388.855 181.712 390.919 179.552 394.639 179.552C398.287 179.552 400.423 181.712 400.423 184.808C400.423 187.928 398.287 190.088 394.639 190.088C390.919 190.088 388.855 187.928 388.855 184.808ZM405.223 198.728H403.615V194.672C400.903 195.296 397.423 195.464 393.487 195.464H387.655V194.072H393.511C397.111 194.072 400.711 193.976 403.615 193.28V178.616H405.223V198.728ZM390.319 184.808C390.319 187.232 391.927 188.648 394.639 188.648C397.303 188.648 398.959 187.232 398.959 184.808C398.959 182.456 397.303 180.92 394.639 180.92C391.927 180.92 390.319 182.456 390.319 184.808ZM419.367 195.608C419.367 193.352 421.671 191.888 426.783 191.888C431.847 191.888 434.175 193.352 434.175 195.608C434.175 197.888 431.847 199.352 426.783 199.352C421.671 199.352 419.367 197.888 419.367 195.608ZM416.247 184.304C416.247 181.184 418.503 179.216 421.623 179.216C424.719 179.216 426.951 181.184 426.951 184.304C426.951 187.424 424.719 189.416 421.623 189.416C418.503 189.416 416.247 187.424 416.247 184.304ZM420.999 195.608C420.999 197.24 423.063 198.056 426.783 198.056C430.455 198.056 432.543 197.24 432.543 195.608C432.543 194 430.455 193.184 426.783 193.184C423.063 193.184 420.999 194 420.999 195.608ZM417.807 184.304C417.807 186.608 419.415 188.024 421.623 188.024C423.807 188.024 425.415 186.608 425.415 184.304C425.415 181.976 423.807 180.584 421.623 180.584C419.415 180.584 417.807 181.976 417.807 184.304ZM433.839 191H432.207V187.328H427.887V186.008H432.207V182.624H427.887V181.328H432.207V178.616H433.839V191ZM438.278 184.304C438.278 181.184 440.534 179.216 443.654 179.216C446.75 179.216 448.982 181.184 448.982 184.304C448.982 187.424 446.75 189.416 443.654 189.416C440.534 189.416 438.278 187.424 438.278 184.304ZM439.838 184.304C439.838 186.608 441.446 188.024 443.654 188.024C445.838 188.024 447.446 186.608 447.446 184.304C447.446 181.976 445.838 180.584 443.654 180.584C441.446 180.584 439.838 181.976 439.838 184.304ZM455.87 190.76H454.238V187.328H449.918V186.008H454.238V182.624H449.918V181.328H454.238V178.616H455.87V190.76ZM455.87 199.232H454.238V193.64H441.398V192.272H455.87V199.232ZM461.558 182.504C461.558 180.176 464.102 178.976 469.334 178.976C474.494 178.976 477.11 180.176 477.11 182.504C477.11 184.808 474.494 186.008 469.334 186.008C464.102 186.008 461.558 184.808 461.558 182.504ZM463.118 182.504C463.118 184.088 465.638 184.688 469.334 184.688C473.006 184.688 475.55 184.088 475.55 182.504C475.55 180.896 473.006 180.296 469.334 180.296C465.638 180.296 463.118 180.896 463.118 182.504ZM477.254 199.472H461.918V194.552H475.166V192.512H461.918V191.12H476.798V195.944H463.526V198.08H477.254V199.472ZM479.294 189.248H459.374V187.856H479.294V189.248ZM18.408 234.728H16.776V230.48C14.088 231.056 10.656 231.224 6.768 231.224H0.936V229.832H5.856V223.112H7.488V229.832C10.776 229.832 14.088 229.688 16.776 229.064V214.616H18.408V222.704H22.488V224.096H18.408V234.728ZM12.48 226.736L10.896 226.472C11.592 223.328 11.832 219.776 11.784 217.424H2.688V216.032H13.392C13.44 219.08 13.272 222.8 12.48 226.736ZM40.0446 235.232H25.8366V227.552H40.0446V235.232ZM38.4366 233.84V228.944H27.4446V233.84H38.4366ZM30.8766 225.56L29.2926 225.08C30.3966 222.584 31.0926 219.464 31.1406 216.944H22.7166V215.552H32.8206C32.8206 218.888 32.1006 222.704 30.8766 225.56ZM40.0446 226.064H38.4366V214.616H40.0446V220.592H43.9326V221.984H40.0446V226.064ZM48.0231 216.08L48.3351 214.832C50.7111 215.624 53.3271 215.384 55.6791 215.384V216.632C53.0391 216.68 49.9191 216.752 48.0231 216.08ZM58.6071 220.592H44.9751V219.224H58.6071V220.592ZM62.5431 234.728H60.9351V214.616H62.5431V234.728ZM46.5831 227.216C46.5831 224.624 48.4551 222.752 51.8631 222.752C55.3191 222.752 57.1431 224.624 57.1431 227.216C57.1431 229.76 55.3191 231.632 51.8631 231.632C48.4551 231.632 46.5831 229.76 46.5831 227.216ZM48.0951 227.216C48.0951 228.944 49.4871 230.264 51.8631 230.264C54.2631 230.264 55.6311 228.944 55.6311 227.216C55.6311 225.44 54.2631 224.12 51.8631 224.12C49.4871 224.12 48.0951 225.44 48.0951 227.216ZM91.2553 235.232H76.9273V227.792H91.2553V235.232ZM89.6473 233.84V229.184H78.5353V233.84H89.6473ZM85.6153 223.256L85.8793 224.6C83.7673 225.008 81.1513 225.152 77.4553 225.152H74.3833V215.456H76.0153V223.76H77.5753C80.9353 223.76 83.5033 223.64 85.6153 223.256ZM91.2553 226.304H89.6473V220.592H83.5033V219.224H89.6473V214.616H91.2553V226.304ZM114.46 232.568H94.7798V231.176H102.46V223.544H104.068V231.176H114.46V232.568ZM111.172 227.96L109.588 227.744C110.164 224.264 110.452 221.192 110.452 217.664H97.0117V216.272H112.06V217.232C112.06 219.128 111.868 223.808 111.172 227.96ZM133.694 234.728H132.062V214.616H133.694V222.704H137.558V224.096H133.694V234.728ZM123.35 222.656H123.038C123.014 222.968 122.846 223.616 122.654 224.168C122.15 225.632 120.59 228.368 117.206 230.984L116.102 229.952C120.254 226.976 122.414 222.8 122.414 218.648V217.424H116.966V216.032H129.158V217.424H123.95V218.648C123.95 222.608 125.678 226.376 129.902 229.52L128.75 230.6C125.678 227.936 124.19 225.488 123.758 224.216C123.542 223.616 123.398 222.968 123.35 222.656ZM164.733 232.568H145.053V231.176H154.101V225.944H147.405V215.792H149.013V224.528H155.205C158.421 224.528 160.341 224.456 162.717 223.928L162.933 225.32C161.109 225.776 159.021 225.944 155.733 225.944V231.176H164.733V232.568ZM170 221.552V224.936H170.864C174.2 224.936 176.792 224.696 178.904 224.312L179.168 225.656C177.056 226.064 174.416 226.328 170.744 226.328H168.368V220.232H176.024V216.944H168.368V215.552H177.632V221.552H170ZM185.24 227.12H183.632V223.328H178.856V222.008H183.632V219.344H178.856V218.024H183.632V214.616H185.24V227.12ZM185.24 235.232H183.632V229.88H170.792V228.512H185.24V235.232ZM206.452 235.232H192.244V227.984H193.852V230.312H204.844V227.984H206.452V235.232ZM204.844 233.84V231.68H193.852V233.84H204.844ZM206.452 226.904H204.844V214.616H206.452V221.432H210.316V222.8H206.452V226.904ZM201.916 219.416H189.34V218.096H201.916V219.416ZM190.348 223.904C190.348 221.96 192.364 220.736 195.7 220.736C199.036 220.736 201.076 221.96 201.076 223.904C201.076 225.848 199.036 227.072 195.7 227.072C192.364 227.072 190.348 225.848 190.348 223.904ZM191.908 223.904C191.908 225.272 193.66 225.824 195.7 225.824C197.764 225.824 199.492 225.272 199.492 223.904C199.492 222.536 197.764 222.008 195.7 222.008C193.66 222.008 191.908 222.536 191.908 223.904ZM191.812 215.792L192.124 214.496C194.5 215.288 197.116 215.024 199.468 215.024V216.368C196.828 216.416 193.708 216.488 191.812 215.792ZM216.517 230.336H213.013V216.032H214.645V228.944H216.541C220.621 228.944 224.725 228.824 227.821 227.864V214.616H229.429V234.728H227.821V229.304C224.941 230.12 221.005 230.336 216.517 230.336ZM250.752 234.728H249.144V229.52C246.264 230.36 242.352 230.552 237.84 230.552H234.576V216.152H244.128V217.52H236.208V229.184H237.864C241.944 229.184 246.048 229.064 249.144 228.104V214.616H250.752V222.704H254.616V224.096H250.752V234.728ZM258.177 230.912V233.456H255.801V230.912H258.177Z" fill="white"/>
</svg>
