<svg width="206" height="64" viewBox="0 0 206 64" fill="none" xmlns="http://www.w3.org/2000/svg">
<path d="M28.7341 24.432L33.2221 36.384H33.4141C34.9261 32.448 36.3661 28.632 37.6861 24.432C37.7821 24.12 37.8301 23.856 37.8301 23.688C37.8301 23.16 37.4221 23.016 36.3901 23.016V22.344C37.3021 22.368 38.1421 22.368 38.8861 22.368C39.6061 22.368 40.2781 22.368 40.8781 22.344V23.016C39.9421 23.064 39.3901 23.376 38.9821 24.48C37.2301 29.376 35.3821 34.248 33.4381 39.144H32.5261L27.0541 24.888C26.5501 23.568 25.9021 23.064 24.7981 22.992V22.344C25.6141 22.368 26.5501 22.368 27.4861 22.368C28.4461 22.368 29.3581 22.368 30.1981 22.344V22.992L29.5261 23.04C28.9981 23.088 28.6621 23.448 28.6621 23.952C28.6621 24.096 28.6861 24.264 28.7341 24.432ZM43.7619 23.808C43.0419 23.808 42.4659 23.256 42.4659 22.536C42.4659 21.744 43.0419 21.168 43.7859 21.168C44.5539 21.168 45.0579 21.744 45.0579 22.536C45.0579 23.256 44.5539 23.808 43.7619 23.808ZM44.8179 27.096V37.32C44.8179 38.28 45.7539 38.448 46.5219 38.52V39.192C45.7059 39.168 44.8659 39.144 44.1219 39.144C43.3299 39.144 42.4419 39.168 41.7459 39.192V38.52C42.4659 38.496 43.1379 38.208 43.1379 37.44V29.544C43.1379 28.44 42.8979 28.272 42.1059 28.272H41.7219V27.648L44.4339 26.88C44.6739 26.832 44.8179 26.88 44.8179 27.096ZM48.3256 33.168C48.3256 29.496 50.8696 26.76 54.0376 26.76C56.7496 26.76 58.5256 28.92 58.5256 31.584C58.5256 31.872 58.5016 32.136 58.4776 32.376L50.0536 32.424C50.0536 36.096 51.8536 37.92 54.6376 37.92C55.9576 37.92 57.2776 37.416 58.0456 36.816L58.4296 37.416C57.4456 38.424 55.7656 39.312 53.7736 39.312C50.4376 39.312 48.3256 36.696 48.3256 33.168ZM53.6776 27.864C51.5656 27.864 50.3656 29.328 50.1256 31.416L56.6536 31.272C56.6536 29.424 55.5016 27.864 53.6776 27.864ZM76.9972 27.096V27.744C76.1572 27.864 75.6532 28.2 75.2692 29.496C74.3092 32.76 73.5412 35.832 72.3652 39.096H71.9092C71.0212 36.336 69.8692 32.976 68.7892 30.216H68.5732C67.6852 33.024 66.4852 36.336 65.4772 39.096H64.9012C64.0372 35.856 63.0052 32.688 62.0452 29.52C61.6612 28.152 61.2532 27.864 60.1972 27.744V27.096C61.7812 27.12 62.9092 27.144 64.4692 27.096V27.744C63.7732 27.816 63.3412 27.864 63.6052 28.776L65.5012 35.544H65.8372L68.7652 27.12H69.4132C70.2772 29.688 71.3572 32.808 72.2932 35.448H72.6052C73.1812 33.288 73.8052 31.128 74.3332 28.92C74.5252 28.08 74.4772 27.744 73.3732 27.744V27.096C74.7892 27.12 75.5812 27.144 76.9972 27.096ZM103.116 37.08C103.14 38.208 104.076 38.424 104.964 38.472V39.144C103.428 39.096 101.124 39.12 99.6837 39.144V38.472C100.572 38.448 101.34 38.16 101.34 37.128L100.98 25.272H100.764L95.3637 38.304H94.4757L88.9797 25.152H88.7637L88.4517 37.128C88.4517 38.16 89.1717 38.448 90.0597 38.472V39.144C88.6437 39.12 86.9397 39.096 85.4037 39.144V38.472C86.2917 38.424 87.3477 38.088 87.3717 37.08L87.7557 24.384C87.7557 23.256 86.8437 23.064 86.0517 23.016V22.344H89.7957L95.0997 35.184H95.4357L100.74 22.344H104.484V23.016C103.476 23.064 102.684 23.256 102.708 24.792L103.116 37.08ZM113.037 26.76C116.085 26.76 118.533 29.136 118.533 32.904C118.485 36.648 116.061 39.312 112.701 39.312C109.581 39.312 107.133 36.984 107.157 33.144C107.205 29.376 109.821 26.76 113.037 26.76ZM116.733 33.36C116.685 30.864 115.557 27.84 112.509 27.84C110.397 27.84 108.861 29.568 108.909 32.784C108.957 35.424 110.373 38.208 113.157 38.208C115.989 38.208 116.733 35.592 116.733 33.36ZM123.917 27.096V29.304H124.109C124.493 28.464 125.813 26.808 127.205 26.808C128.189 26.808 128.741 27.264 128.741 27.888C128.741 28.32 128.429 28.872 127.925 29.016C127.613 28.8 127.133 28.56 126.461 28.632C125.693 28.728 124.589 29.328 123.917 30.264V37.2C123.917 38.16 124.757 38.4 125.525 38.472V39.12C124.709 39.072 123.917 39.072 123.149 39.072C122.357 39.072 121.589 39.072 120.869 39.12V38.472C121.613 38.448 122.237 38.16 122.237 37.392V29.544C122.237 28.44 121.901 28.296 121.109 28.248H120.821V27.648L123.509 26.856C123.749 26.808 123.917 26.856 123.917 27.096ZM130.169 33.168C130.169 29.496 132.713 26.76 135.881 26.76C138.593 26.76 140.369 28.92 140.369 31.584C140.369 31.872 140.345 32.136 140.321 32.376L131.897 32.424C131.897 36.096 133.697 37.92 136.481 37.92C137.801 37.92 139.121 37.416 139.889 36.816L140.273 37.416C139.289 38.424 137.609 39.312 135.617 39.312C132.281 39.312 130.169 36.696 130.169 33.168ZM135.521 27.864C133.409 27.864 132.209 29.328 131.969 31.416L138.497 31.272C138.497 29.424 137.345 27.864 135.521 27.864Z" fill="#131313"/>
<path d="M164.499 41.0149C164.989 41.5049 165.779 41.5049 166.269 41.0149L174.579 32.7049C174.969 32.3149 174.969 31.6849 174.579 31.2949L166.269 22.9849C165.779 22.4949 164.989 22.4949 164.499 22.9849C164.009 23.4749 164.009 24.2649 164.499 24.7549L171.739 32.0049L164.489 39.2549C164.009 39.7349 164.009 40.5349 164.499 41.0149Z" fill="#131313"/>
<rect x="0.999512" y="0.5" width="204.001" height="63" rx="31.5" stroke="#131313"/>
</svg>
