<svg width="24" height="24" viewBox="0 0 24 24" fill="none" xmlns="http://www.w3.org/2000/svg">
<mask id="mask0_840_2520" style="mask-type:luminance" maskUnits="userSpaceOnUse" x="0" y="0" width="24" height="24">
<path d="M24 0H0V24H24V0Z" fill="white"/>
</mask>
<g mask="url(#mask0_840_2520)">
<path d="M4 5C3.44771 5 3 5.44771 3 6C3 6.55228 3.44771 7 4 7V5ZM20 7C20.5523 7 21 6.55228 21 6C21 5.44771 20.5523 5 20 5V7ZM4 11C3.44771 11 3 11.4477 3 12C3 12.5523 3.44771 13 4 13V11ZM20 13C20.5523 13 21 12.5523 21 12C21 11.4477 20.5523 11 20 11V13ZM13 17C12.4477 17 12 17.4477 12 18C12 18.5523 12.4477 19 13 19V17ZM20 19C20.5523 19 21 18.5523 21 18C21 17.4477 20.5523 17 20 17V19ZM4 7H20V5H4V7ZM4 13H20V11H4V13ZM13 19H20V17H13V19Z" fill="#131313"/>
</g>
</svg>
