<svg width="169" height="56" viewBox="0 0 169 56" fill="none" xmlns="http://www.w3.org/2000/svg">
<path d="M32.8797 32.298L32.8617 20.742C32.8437 19.806 32.3757 19.392 31.1697 19.014L31.3137 18.564C32.3577 18.654 33.6537 18.96 34.2117 19.302C34.2657 19.338 34.3017 19.374 34.2837 19.464C34.1937 19.968 34.1757 20.634 34.1757 21.048L34.1577 26.088C35.2377 25.998 36.2097 25.8 37.2357 25.566C37.3437 25.548 37.3977 25.62 37.3977 25.692L37.3617 26.646C37.3617 26.718 37.3077 26.772 37.2357 26.772C36.2097 26.736 35.1837 26.718 34.1577 26.718L34.1397 32.244C34.1037 33.396 33.9597 34.314 33.5097 34.89C33.4377 34.926 33.1677 34.98 33.1137 34.944C32.9517 34.494 32.8797 33.234 32.8797 32.298ZM28.1457 21.12C29.1177 21.048 29.9817 20.958 30.5217 20.85C30.5937 20.832 30.6657 20.868 30.6657 20.958L30.6297 21.714C30.6297 21.804 30.6117 21.84 30.5217 21.84C29.7477 21.804 29.0097 21.822 28.2897 21.822L26.2737 21.858C26.7417 22.002 27.1197 22.2 27.1377 22.362C27.0837 23.388 26.7417 24.468 26.2197 25.476C27.5157 25.962 30.5937 27.672 30.7197 29.076C30.7377 29.526 30.3957 30.012 29.8557 29.922C29.0637 28.806 27.5337 27.042 26.1117 25.71C24.9417 27.942 22.9617 29.904 21.4317 30.696L21.1077 30.372C22.9977 29.076 25.4097 25.692 25.6077 22.434C25.6077 22.182 25.5897 22.002 25.5717 21.876L24.4737 21.93C23.7537 21.984 23.3217 22.002 22.7997 22.182C22.4577 22.11 21.8277 21.732 21.5577 21.336L21.7557 21.066C22.1337 21.192 23.1777 21.264 24.0417 21.264C25.4637 21.264 27.1737 21.192 28.1457 21.12ZM48.6741 31.416L48.6201 24.99L48.1341 25.044C47.3421 25.134 46.9281 25.26 46.6761 25.368C46.2081 25.332 45.5241 24.954 45.3261 24.612L45.4701 24.342C45.9381 24.414 46.5681 24.468 47.7741 24.396L48.6201 24.342L48.6021 21.426C48.5841 20.508 48.4041 20.184 47.1981 19.788L47.3241 19.338C48.3681 19.428 49.3041 19.662 49.8441 19.986C49.8981 20.04 49.9341 20.076 49.9161 20.166C49.8261 20.67 49.8441 21.318 49.8441 21.732V31.362C49.8081 32.496 49.7181 33.432 49.3221 34.008C49.2501 34.044 48.9621 34.098 48.9081 34.062C48.7461 33.612 48.6741 32.352 48.6741 31.416ZM51.8601 32.298L51.7701 20.742C51.7521 19.806 51.4821 19.41 50.2761 19.032L50.4021 18.564C51.4461 18.654 52.5261 18.942 53.0661 19.266C53.1201 19.302 53.1561 19.338 53.1381 19.428C53.0481 19.932 53.0301 20.598 53.0301 21.012V32.244C52.9941 33.378 52.9041 34.332 52.4901 34.89C52.4181 34.926 52.1301 34.98 52.0761 34.944C51.9141 34.494 51.8601 33.234 51.8601 32.298ZM38.7741 30.444L38.4861 30.192C40.5561 28.626 43.0041 24.9 43.2561 22.128C43.2921 21.642 42.5361 21.3 42.1221 21.174L42.3021 20.778C42.9321 20.796 44.4261 21.228 44.7861 21.444C44.8761 21.498 44.9481 21.552 44.9301 21.714C44.6961 23.046 44.0841 24.45 43.3101 25.746C44.5341 26.394 46.7301 27.888 46.6761 29.13C46.6581 29.49 46.4061 29.904 45.9021 29.796C45.2181 28.662 44.3001 27.33 43.1301 26.016C41.8881 27.996 40.2141 29.688 38.7741 30.444ZM67.7576 32.298L67.7396 20.742C67.7216 19.806 67.2536 19.392 66.0476 19.014L66.1916 18.564C67.2356 18.654 68.5316 18.96 69.0896 19.302C69.1436 19.338 69.1796 19.374 69.1616 19.464C69.0716 19.968 69.0536 20.634 69.0536 21.048L69.0176 32.244C68.9816 33.396 68.8376 34.314 68.3876 34.89C68.3156 34.926 68.0456 34.98 67.9916 34.944C67.8296 34.494 67.7576 33.234 67.7576 32.298ZM61.2776 24.63C63.3836 24.63 64.9496 25.854 64.9496 27.672C64.9496 29.454 63.4376 30.786 61.2776 30.786C59.2796 30.786 57.5876 29.58 57.5876 27.672C57.5876 25.836 59.2796 24.63 61.2776 24.63ZM61.2776 25.26C59.8556 25.26 58.9016 26.286 58.9016 27.69C58.9016 29.004 59.8556 30.102 61.2776 30.102C62.7356 30.102 63.6356 29.058 63.6356 27.69C63.6356 26.358 62.7716 25.26 61.2776 25.26ZM58.3076 19.914L58.4876 19.608C59.6396 19.986 61.2056 20.202 62.6096 20.202C63.0416 20.202 63.4736 20.184 63.8696 20.148C63.9236 20.202 63.9776 20.31 63.9776 20.418C63.9776 20.994 63.1856 21.264 62.2316 21.264C60.7016 21.264 59.1176 20.688 58.3076 19.914ZM63.7256 22.722C64.6796 22.65 65.7236 22.524 66.2456 22.416C66.3176 22.398 66.3896 22.434 66.3896 22.524L66.3536 23.334C66.3536 23.424 66.3356 23.46 66.2456 23.46C65.4896 23.424 64.6076 23.388 63.9056 23.388C62.3576 23.388 60.2156 23.478 59.0276 23.532C58.3256 23.568 57.7856 23.622 57.2636 23.802C56.9216 23.73 56.2196 23.316 55.9496 22.92L56.1476 22.65C56.5436 22.776 57.6596 22.866 58.5416 22.866C59.9456 22.866 62.4656 22.812 63.7256 22.722ZM80.4776 26.556L80.3516 22.47C80.3336 21.408 80.2256 20.994 79.0916 20.598L79.2536 20.202C80.2436 20.274 81.2696 20.562 81.6836 20.85C81.7376 20.886 81.7556 20.958 81.7376 21.03C81.7016 21.534 81.7016 22.2 81.7016 22.614V23.1C83.5736 23.082 86.3996 23.028 88.2176 22.956V21.606C88.1996 20.544 88.0556 20.22 86.9216 19.806L87.1376 19.392C88.1816 19.464 89.2796 19.824 89.6396 20.076C89.7116 20.13 89.7296 20.166 89.7116 20.274C89.6396 20.778 89.5856 21.66 89.5856 22.074L89.4956 24.99C89.4596 25.674 89.2976 26.358 89.0816 26.826C89.2796 26.808 89.4596 26.79 89.6396 26.754C89.6756 26.754 89.7476 26.754 89.7476 26.862L89.7116 27.438C89.7116 27.528 89.6936 27.546 89.6036 27.546L81.5576 27.6C81.4496 27.978 81.2876 28.23 81.1076 28.356C81.0356 28.374 80.7476 28.41 80.7296 28.392C80.5856 27.996 80.5136 27.528 80.4776 26.556ZM81.7016 26.466C81.7016 26.646 81.7016 26.808 81.6836 26.97C83.2856 26.988 85.9136 26.952 88.2176 26.862V23.64C86.3996 23.658 83.6096 23.712 81.7016 23.766V26.466ZM89.5136 32.55C86.4536 32.568 83.6996 32.622 80.6756 32.712C79.9736 32.73 79.1096 32.82 78.5696 33C78.0836 32.928 77.2196 32.316 77.0216 31.938L77.2376 31.668C77.9036 31.848 78.9296 31.956 80.1536 31.974C81.4136 31.992 83.0156 32.01 84.7436 31.974L84.6536 30.12C84.6176 29.274 84.5276 29.004 83.4656 28.734L83.5736 28.32C84.3296 28.32 85.4996 28.536 85.8596 28.68C85.9136 28.716 85.9316 28.734 85.9316 28.842C85.8776 29.598 85.8596 29.976 85.8236 30.876C85.7876 31.272 85.7516 31.686 85.6616 31.956C86.9396 31.938 88.2536 31.884 89.5136 31.794C90.5936 31.722 91.6916 31.632 92.6096 31.452C92.7176 31.434 92.7716 31.506 92.7716 31.578L92.7356 32.478C92.7356 32.55 92.6816 32.604 92.6096 32.604C91.7276 32.568 90.5036 32.55 89.5136 32.55ZM105.217 32.298L105.199 20.742C105.181 19.806 104.713 19.392 103.507 19.014L103.651 18.564C104.695 18.654 105.991 18.96 106.549 19.302C106.603 19.338 106.639 19.374 106.621 19.464C106.531 19.968 106.513 20.634 106.513 21.048L106.477 32.244C106.441 33.396 106.297 34.314 105.847 34.89C105.775 34.926 105.505 34.98 105.451 34.944C105.289 34.494 105.217 33.234 105.217 32.298ZM99.5473 21.75L96.9733 21.876C96.2353 21.93 95.7853 21.984 95.2453 22.164C94.9393 22.092 94.2733 21.768 93.9493 21.3L94.1473 21.012C94.6513 21.156 95.2993 21.21 96.0013 21.21C96.9553 21.21 97.6213 21.192 98.3953 21.12C99.1153 21.048 99.3853 20.976 99.5293 20.904C100.033 20.832 100.825 20.886 101.239 20.94C101.347 20.958 101.347 21.048 101.347 21.084C101.329 21.75 101.275 22.704 101.221 23.316C100.843 27.618 99.5833 30.39 98.4313 31.704L97.8733 31.452C98.6113 29.886 99.9433 26.628 99.7273 21.912C99.7273 21.786 99.6553 21.75 99.5473 21.75Z" fill="white"/>
<path d="M131.999 37.0149C132.489 37.5049 133.279 37.5049 133.769 37.0149L142.079 28.7049C142.469 28.3149 142.469 27.6849 142.079 27.2949L133.769 18.9849C133.279 18.4949 132.489 18.4949 131.999 18.9849C131.509 19.4749 131.509 20.2649 131.999 20.7549L139.239 28.0049L131.989 35.2549C131.509 35.7349 131.509 36.5349 131.999 37.0149Z" fill="white"/>
<rect x="0.5" y="0.5" width="168.001" height="55" rx="27.5" stroke="white"/>
</svg>
