<svg width="168" height="24" viewBox="0 0 168 24" fill="none" xmlns="http://www.w3.org/2000/svg">
<path fill-rule="evenodd" clip-rule="evenodd" d="M9.77784 12.8V20H13.1359V12.9H15.4075L16.0001 9.9H13.1359C13.1359 9.9 13.1359 8.5 13.1359 7.7C13.1359 7.4 13.2346 7 13.7285 7C14.4198 7 15.3087 7 15.3087 7V4C15.3087 4 13.8272 4 12.247 4C11.2593 4 9.77784 5.3 9.77784 6.8C9.77784 8.3 9.77784 9.9 9.77784 9.9H8.00006V12.9L9.77784 12.8Z" fill="white"/>
<path d="M60 8.8335C58.2883 8.8335 56.8334 10.2885 56.8334 12.0002C56.8334 13.7119 58.2883 15.1668 60 15.1668C61.7118 15.1668 63.1667 13.7119 63.1667 12.0002C63.1667 10.2885 61.7118 8.8335 60 8.8335Z" fill="white"/>
<path d="M64.0591 2.5H56.0273C52.9182 2.5 50.5 4.91818 50.5 7.94091V15.9727C50.5 19.0818 52.9182 21.5 56.0273 21.5H64.0591C67.0818 21.5 69.5 19.0818 69.5 15.9727V7.94091C69.5 4.91818 67.0818 2.5 64.0591 2.5ZM60 17.0091C57.2364 17.0091 55.0773 14.7636 55.0773 12.0864C55.0773 9.40909 57.2364 7.07727 60 7.07727C62.7636 7.07727 64.9227 9.32273 64.9227 12C64.9227 14.6773 62.7636 17.0091 60 17.0091ZM65.0955 8.11364C64.4909 8.11364 63.9727 7.59545 63.9727 6.99091C63.9727 6.38636 64.4909 5.86818 65.0955 5.86818C65.7 5.86818 66.2182 6.38636 66.2182 6.99091C66.2182 7.59545 65.7 8.11364 65.0955 8.11364Z" fill="white"/>
<path fill-rule="evenodd" clip-rule="evenodd" d="M116.598 4.71569C117.545 4.96794 118.29 5.71693 118.542 6.67159C119 8.39853 118.996 11.9999 118.996 11.9999C118.996 11.9999 118.996 15.6012 118.538 17.3281C118.286 18.2789 117.541 19.0279 116.594 19.284C114.879 19.7459 107.998 19.7459 107.998 19.7459C107.998 19.7459 101.117 19.7459 99.4022 19.284C98.4553 19.0318 97.7102 18.2828 97.4579 17.3281C97 15.6012 97 11.9999 97 11.9999C97 11.9999 97 8.39853 97.4618 6.66771C97.7141 5.71693 98.4592 4.96794 99.4061 4.71181C101.121 4.25 108.002 4.25 108.002 4.25C108.002 4.25 114.879 4.25 116.598 4.71569ZM105.751 8.72842V15.2714L111.502 11.9999L105.751 8.72842Z" fill="white"/>
<g clip-path="url(#clip0_263_307)">
<path d="M151.024 8.99902H147.27V21H151.024V8.99902Z" fill="white"/>
<path d="M164.551 14.5657V21.0001H160.797V15.0011C160.797 13.4235 160.607 12.1457 158.77 12.1457C156.932 12.1457 156.746 13.4264 156.746 15.0011V21.0001H152.991V8.99915H156.746V10.7152C157.311 9.46844 158.38 8.67969 160.356 8.67969C160.508 8.67969 160.655 8.68534 160.797 8.69382C164.186 8.89455 164.551 11.4446 164.551 14.5657Z" fill="white"/>
<path d="M151.3 5.14859C151.3 3.96121 150.336 3 149.149 3C147.961 3 147 3.96121 147 5.14859C147 6.33596 147.961 7.29717 149.149 7.29717C150.336 7.29717 151.297 6.33596 151.297 5.14859H151.3Z" fill="white"/>
</g>
<defs>
<clipPath id="clip0_263_307">
<rect width="24" height="24" fill="white" transform="translate(144)"/>
</clipPath>
</defs>
</svg>
