<svg width="250" height="25" viewBox="0 0 250 25" fill="none" xmlns="http://www.w3.org/2000/svg">
<path d="M11.3014 4.08663C11.7624 5.20623 13.883 10.4091 14.186 11.1401L8.21917 11.1204C8.54188 10.3827 10.814 5.20624 11.3014 4.09322M10.1291 0.655395L0 23.6467L2.8912 23.6599L7.21812 13.5966C7.21812 13.5966 14.726 13.623 15.1278 13.6296C15.2858 14.0116 19.2703 23.7257 19.2703 23.7257L22.3195 23.7389L12.7173 0.675151H10.1357L10.1291 0.655395Z" fill="#1C2544"/>
<path d="M47.2273 0.711369C47.2273 0.711369 39.7787 17.6832 39.2189 18.9608C38.6657 17.6832 31.3422 0.652098 31.3422 0.652098L27.6739 0.638934L27.5882 23.6697L30.328 23.6829L30.4004 5.04489L38.5076 23.7093H39.8643C39.8643 23.7093 46.9968 7.38946 47.9847 5.12391L47.9123 23.7422L50.652 23.7554L50.7376 0.724553L47.2339 0.711369H47.2273Z" fill="#1C2544"/>
<path d="M98.1626 12.9841C101.772 12.3848 103.695 10.3366 103.701 7.01734C103.715 2.90117 100.942 0.806863 95.4426 0.787105L85.8273 0.747592L85.7877 10.6067L79.6958 10.5869C79.024 4.36983 74.381 0.141697 67.9466 0.115353C60.9458 0.0890097 56.0328 5.04158 56.0064 12.1477C55.9801 19.2671 60.8536 24.2526 67.8544 24.2789C74.5588 24.3053 79.3336 19.761 79.7551 13.1356L85.7812 13.1554L85.7416 23.7784L88.4814 23.7916L88.5209 13.1686L95.3043 13.1949C95.4887 13.511 101.554 23.8377 101.554 23.8377L104.689 23.8508C104.689 23.8508 98.6105 13.7283 98.1626 12.9841ZM67.8676 21.7302C62.4737 21.7105 58.7198 17.7787 58.7461 12.1609C58.7659 6.54974 62.5528 2.64433 67.94 2.66408C73.3273 2.68384 77.0746 6.62219 77.0549 12.2334C77.0351 17.8511 73.2614 21.7565 67.8676 21.7368M88.5011 10.5869L88.5275 3.27657L96.0354 3.30292C100.474 3.31609 100.948 5.87798 100.942 6.97783C100.942 8.07108 100.448 10.633 96.009 10.6132L88.5011 10.5869Z" fill="#1C2544"/>
<path d="M110.044 0.652108L109.958 23.6829L126.186 23.7422L126.192 21.1935L112.717 21.1408L112.744 13.0731L125 13.1192L125.007 10.5704L112.757 10.5243L112.783 3.214L125.757 3.26011L125.764 0.711379L110.044 0.652108Z" fill="#1C2544"/>
<path d="M131.546 0.382077L131.461 23.4129H132.982L133.028 12.1708L138.495 12.1906C141.781 12.2037 145.298 10.6758 145.311 6.35547C145.331 1.00774 140.227 0.415012 138.034 0.408426L131.553 0.382077M133.417 1.7256L138.304 1.74536C140.839 1.75194 143.796 2.97032 143.783 6.34888C143.77 9.68792 141.004 10.8668 138.409 10.8602L133.041 10.8405L133.074 1.7256H133.423M154.353 0.467696L144.218 23.459H145.792C145.792 23.459 150.046 13.567 150.132 13.376L159.912 13.4155C159.997 13.6131 164.054 23.538 164.054 23.538H165.8L156.197 0.474289H154.36M154.841 2.43029C154.841 2.43029 155.018 2.0088 155.163 1.68609C155.433 2.36443 159.194 11.6703 159.365 12.0918L150.724 12.0588C150.915 11.6242 154.841 2.4237 154.841 2.4237M168.282 12.0259C168.256 19.1387 173.123 24.1308 180.117 24.1571C183.522 24.1703 186.268 22.8992 188.297 20.39L188.402 20.2583L187.138 19.2901L187.039 19.4218C185.103 21.9508 182.1 22.8333 180.117 22.8268C174.025 22.8004 169.784 18.3681 169.81 12.0391C169.837 5.71006 174.104 1.31069 180.196 1.33044C182.706 1.33703 184.984 2.42371 186.453 4.30068L186.558 4.43898L187.829 3.37207L187.717 3.25353C185.867 1.10653 183.344 0.0132763 180.203 0.00010459C173.209 -0.0262389 168.302 4.92633 168.276 12.0325M229.874 12.263C229.847 19.3758 234.714 24.3679 241.708 24.3942C245.113 24.4074 247.86 23.1363 249.895 20.6271L250 20.4953L248.736 19.5272L248.637 19.659C246.701 22.1879 243.704 23.0704 241.715 23.0638C235.623 23.0375 231.382 18.6052 231.401 12.2762C231.428 5.94714 235.702 1.54779 241.794 1.56755C244.303 1.57413 246.582 2.66079 248.051 4.53776L248.156 4.67608L249.434 3.60917L249.322 3.49061C247.471 1.34362 244.942 0.250358 241.801 0.237187C234.806 0.210843 229.906 5.16343 229.874 12.2696M194.712 23.6566H196.253L196.338 0.632343H194.797L194.712 23.6566ZM202.885 0.6521L202.799 23.6829H204.334L204.38 12.4408L215.523 12.4869V11.1566L204.386 11.1171L204.419 2.00222L216.405 2.0483V0.71137L202.885 0.658692M222.814 23.7685H224.348L224.434 0.744312H222.899L222.814 23.7685Z" fill="#1C2544"/>
</svg>
