<svg width="140" height="42" viewBox="0 0 140 42" fill="none" xmlns="http://www.w3.org/2000/svg">
<path d="M19.8226 16.288L22.8146 24.256H22.9426C23.9506 21.632 24.9106 19.088 25.7906 16.288C25.8546 16.08 25.8866 15.904 25.8866 15.792C25.8866 15.44 25.6146 15.344 24.9266 15.344V14.896C25.5346 14.912 26.0946 14.912 26.5906 14.912C27.0706 14.912 27.5186 14.912 27.9186 14.896V15.344C27.2946 15.376 26.9266 15.584 26.6546 16.32C25.4866 19.584 24.2546 22.832 22.9586 26.096H22.3506L18.7026 16.592C18.3666 15.712 17.9346 15.376 17.1986 15.328V14.896C17.7426 14.912 18.3666 14.912 18.9906 14.912C19.6306 14.912 20.2386 14.912 20.7986 14.896V15.328L20.3506 15.36C19.9986 15.392 19.7746 15.632 19.7746 15.968C19.7746 16.064 19.7906 16.176 19.8226 16.288ZM29.8411 15.872C29.3611 15.872 28.9771 15.504 28.9771 15.024C28.9771 14.496 29.3611 14.112 29.8571 14.112C30.3691 14.112 30.7051 14.496 30.7051 15.024C30.7051 15.504 30.3691 15.872 29.8411 15.872ZM30.5451 18.064V24.88C30.5451 25.52 31.1691 25.632 31.6811 25.68V26.128C31.1371 26.112 30.5771 26.096 30.0811 26.096C29.5531 26.096 28.9611 26.112 28.4971 26.128V25.68C28.9771 25.664 29.4251 25.472 29.4251 24.96V19.696C29.4251 18.96 29.2651 18.848 28.7371 18.848H28.4811V18.432L30.2891 17.92C30.4491 17.888 30.5451 17.92 30.5451 18.064ZM32.8836 22.112C32.8836 19.664 34.5796 17.84 36.6916 17.84C38.4996 17.84 39.6836 19.28 39.6836 21.056C39.6836 21.248 39.6676 21.424 39.6516 21.584L34.0356 21.616C34.0356 24.064 35.2356 25.28 37.0916 25.28C37.9716 25.28 38.8516 24.944 39.3636 24.544L39.6196 24.944C38.9636 25.616 37.8436 26.208 36.5156 26.208C34.2916 26.208 32.8836 24.464 32.8836 22.112ZM36.4516 18.576C35.0436 18.576 34.2436 19.552 34.0836 20.944L38.4356 20.848C38.4356 19.616 37.6676 18.576 36.4516 18.576ZM51.9979 18.064V18.496C51.438 18.576 51.1019 18.8 50.846 19.664C50.2059 21.84 49.6939 23.888 48.9099 26.064H48.6059C48.0139 24.224 47.2459 21.984 46.5259 20.144H46.3819C45.7899 22.016 44.9899 24.224 44.3179 26.064H43.9339C43.3579 23.904 42.6699 21.792 42.0299 19.68C41.7739 18.768 41.5019 18.576 40.7979 18.496V18.064C41.8539 18.08 42.6059 18.096 43.6459 18.064V18.496C43.1819 18.544 42.8939 18.576 43.0699 19.184L44.3339 23.696H44.5579L46.5099 18.08H46.9419C47.5179 19.792 48.2379 21.872 48.8619 23.632H49.07C49.4539 22.192 49.8699 20.752 50.2219 19.28C50.3499 18.72 50.3179 18.496 49.5819 18.496V18.064C50.5259 18.08 51.0539 18.096 51.9979 18.064ZM69.4103 24.72C69.4263 25.472 70.0503 25.616 70.6423 25.648V26.096C69.6183 26.064 68.0823 26.08 67.1223 26.096V25.648C67.7143 25.632 68.2263 25.44 68.2263 24.752L67.9863 16.848H67.8423L64.2423 25.536H63.6503L59.9863 16.768H59.8423L59.6343 24.752C59.6343 25.44 60.1143 25.632 60.7063 25.648V26.096C59.7623 26.08 58.6263 26.064 57.6023 26.096V25.648C58.1943 25.616 58.8983 25.392 58.9143 24.72L59.1703 16.256C59.1703 15.504 58.5623 15.376 58.0343 15.344V14.896H60.5303L64.0663 23.456H64.2903L67.8263 14.896H70.3223V15.344C69.6503 15.376 69.1223 15.504 69.1383 16.528L69.4103 24.72ZM76.0246 17.84C78.0566 17.84 79.6886 19.424 79.6886 21.936C79.6566 24.432 78.0406 26.208 75.8006 26.208C73.7206 26.208 72.0886 24.656 72.1046 22.096C72.1366 19.584 73.8806 17.84 76.0246 17.84ZM78.4886 22.24C78.4566 20.576 77.7046 18.56 75.6726 18.56C74.2646 18.56 73.2406 19.712 73.2726 21.856C73.3046 23.616 74.2486 25.472 76.1046 25.472C77.9926 25.472 78.4886 23.728 78.4886 22.24ZM83.2776 18.064V19.536H83.4056C83.6616 18.976 84.5416 17.872 85.4696 17.872C86.1256 17.872 86.4936 18.176 86.4936 18.592C86.4936 18.88 86.2856 19.248 85.9496 19.344C85.7416 19.2 85.4216 19.04 84.9736 19.088C84.4616 19.152 83.7256 19.552 83.2776 20.176V24.8C83.2776 25.44 83.8376 25.6 84.3496 25.648V26.08C83.8056 26.048 83.2776 26.048 82.7656 26.048C82.2376 26.048 81.7256 26.048 81.2456 26.08V25.648C81.7416 25.632 82.1576 25.44 82.1576 24.928V19.696C82.1576 18.96 81.9336 18.864 81.4056 18.832H81.2136V18.432L83.0056 17.904C83.1656 17.872 83.2776 17.904 83.2776 18.064ZM87.4461 22.112C87.4461 19.664 89.1421 17.84 91.2541 17.84C93.0621 17.84 94.2461 19.28 94.2461 21.056C94.2461 21.248 94.2301 21.424 94.2141 21.584L88.5981 21.616C88.5981 24.064 89.7981 25.28 91.6541 25.28C92.5341 25.28 93.4141 24.944 93.9261 24.544L94.1821 24.944C93.5261 25.616 92.4061 26.208 91.0781 26.208C88.8541 26.208 87.4461 24.464 87.4461 22.112ZM91.0141 18.576C89.6061 18.576 88.8061 19.552 88.6461 20.944L92.9981 20.848C92.9981 19.616 92.2301 18.576 91.0141 18.576Z" fill="#131313"/>
<path d="M111.666 27.01C111.993 27.3367 112.519 27.3367 112.846 27.01L118.386 21.47C118.646 21.21 118.646 20.79 118.386 20.53L112.846 14.99C112.519 14.6633 111.993 14.6633 111.666 14.99C111.339 15.3167 111.339 15.8433 111.666 16.17L116.493 21.0033L111.659 25.8367C111.339 26.1567 111.339 26.69 111.666 27.01Z" fill="#131313"/>
<rect x="0.5" y="0.5" width="139" height="41" rx="20.5" stroke="#131313"/>
</svg>
