<svg width="258" height="84" viewBox="0 0 258 84" fill="none" xmlns="http://www.w3.org/2000/svg">
<path d="M71.5449 15.556C73.0389 17.374 74.5329 19.192 76.0989 20.686C76.6569 21.208 77.2869 21.55 77.7729 21.622V22.216H77.0349C75.8469 22.198 75.1449 22.18 74.2269 21.28C73.8489 20.902 73.2369 20.254 70.3029 16.672C70.1229 16.492 69.9789 16.366 69.6909 16.33V20.614C69.6909 21.37 70.3389 21.568 71.0049 21.586V22.216L68.8629 22.198C68.2689 22.198 67.0989 22.198 66.6129 22.216V21.604C67.2609 21.568 67.9269 21.424 67.9449 20.668V10.93C67.9269 10.138 67.3149 10.03 66.6129 9.976V9.346C67.0989 9.364 68.2689 9.364 68.8629 9.364C69.6909 9.364 70.4649 9.364 71.0769 9.346V9.994C70.4109 10.012 69.6909 10.138 69.6909 11.002V15.736C70.8069 14.566 72.2469 12.928 73.6509 11.254C73.9389 10.894 74.4069 10.21 73.9029 10.084C73.7769 10.048 73.5789 10.03 73.3449 10.03V9.346C74.0829 9.364 74.8569 9.382 75.5049 9.382C76.0269 9.382 76.8009 9.364 77.3949 9.346V10.012C76.3869 10.102 76.0269 10.228 75.2169 11.128L71.5449 15.34V15.556ZM88.1846 12.424C88.1846 14.008 87.1046 15.394 85.6286 15.934V16.024C86.3666 17.392 88.0586 19.804 88.7786 20.614C89.2646 21.19 89.7146 21.532 90.2006 21.604V22.216H89.3186C88.0586 22.18 87.8426 22.108 86.9966 21.064C86.3846 20.254 84.9806 18.058 84.1886 16.762C83.9546 16.402 83.7926 16.348 83.4686 16.348H82.1366V20.524C82.1906 21.406 82.8566 21.496 83.4326 21.568C83.4866 21.568 83.5766 21.586 83.7566 21.586V22.216C83.2706 22.198 81.9746 22.198 81.3806 22.198C80.5346 22.198 79.6706 22.198 79.0406 22.216V21.586C79.6166 21.568 80.3906 21.388 80.3906 20.668V11.488C80.3906 10.084 80.1926 10.084 79.1666 9.958V9.364L81.3626 9.382L83.8286 9.364C85.7366 9.364 88.1846 9.886 88.1846 12.424ZM82.1366 15.52H83.4866C85.4486 15.52 86.3306 13.774 86.3666 12.73C86.4206 10.804 85.0526 10.156 83.4326 10.156H82.1366V15.52Z" fill="#131313"/>
<rect x="102.5" y="11" width="1" height="12" fill="#DDDDDD"/>
<path d="M125.053 19.498L125.521 19.624L124.999 22.108H120.319L119.059 22.09C118.231 22.09 117.241 22.09 116.611 22.108V21.604C117.223 21.586 117.961 21.388 117.961 20.614V11.182C117.961 10.426 117.673 10.048 116.791 10.012V9.508L118.771 9.526L120.499 9.508H124.495L124.729 11.956L124.243 12.046C123.919 11.002 123.739 10.174 122.191 10.174H119.257V15.178H121.633C122.947 15.178 123.091 14.908 123.253 13.954H123.703V17.23H123.253C123.055 16.096 122.821 15.88 121.651 15.88H119.257V20.38C119.275 20.92 119.347 21.406 120.391 21.442H122.173C124.171 21.37 124.333 21.118 125.053 19.498ZM137.798 22.144H137.186L129.662 12.208H129.464V19.894C129.464 21.406 129.626 21.514 130.904 21.604V22.108H127.268V21.604C128.528 21.514 128.654 21.388 128.654 19.894V11.938C128.654 10.444 128.186 10.156 127.232 9.994V9.508H129.302L136.844 19.426H137.024V11.704C137.024 10.21 136.844 10.102 135.674 9.994V9.508H139.202V9.994C137.996 10.102 137.834 10.21 137.834 11.704L137.798 22.144Z" fill="#666666"/>
<rect x="152.5" y="11" width="1" height="12" fill="#DDDDDD"/>
<path d="M166.892 15.97C166.928 12.064 169.448 9.328 173.534 9.328C174.956 9.328 176.126 9.742 176.648 9.85L176.792 12.244L176.252 12.316C175.892 10.84 175.01 10.066 173.228 10.066C170.42 10.066 168.296 12.676 168.296 15.646C168.296 19.804 170.978 21.226 173.3 21.226C175.622 21.226 177.098 19.804 177.098 19.822L177.422 20.2C177.422 20.2 175.892 22.252 172.814 22.252C169.34 22.252 166.892 19.786 166.892 15.97ZM189.607 22.144H188.995L181.471 12.208H181.273V19.894C181.273 21.406 181.435 21.514 182.713 21.604V22.108H179.077V21.604C180.337 21.514 180.463 21.388 180.463 19.894V11.938C180.463 10.444 179.995 10.156 179.041 9.994V9.508H181.111L188.653 19.426H188.833V11.704C188.833 10.21 188.653 10.102 187.483 9.994V9.508H191.011V9.994C189.805 10.102 189.643 10.21 189.643 11.704L189.607 22.144Z" fill="#666666"/>
<g clip-path="url(#clip0_894_6191)">
<path fill-rule="evenodd" clip-rule="evenodd" d="M7.33333 75.6V81H9.85185V75.675H11.5556L12 73.425H9.85185C9.85185 73.425 9.85185 72.375 9.85185 71.775C9.85185 71.55 9.92593 71.25 10.2963 71.25C10.8148 71.25 11.4815 71.25 11.4815 71.25V69C11.4815 69 10.3704 69 9.18519 69C8.44445 69 7.33333 69.975 7.33333 71.1C7.33333 72.225 7.33333 73.425 7.33333 73.425H6V75.675L7.33333 75.6Z" fill="#131313"/>
<path d="M89 72.625C87.7162 72.625 86.625 73.7162 86.625 75C86.625 76.2838 87.7162 77.375 89 77.375C90.2838 77.375 91.375 76.2838 91.375 75C91.375 73.7162 90.2838 72.625 89 72.625Z" fill="#131313"/>
<path d="M92.0443 67.875H86.0205C83.6886 67.875 81.875 69.6886 81.875 71.9557V77.9795C81.875 80.3114 83.6886 82.125 86.0205 82.125H92.0443C94.3114 82.125 96.125 80.3114 96.125 77.9795V71.9557C96.125 69.6886 94.3114 67.875 92.0443 67.875ZM89 78.7568C86.9273 78.7568 85.308 77.0727 85.308 75.0648C85.308 73.0568 86.9273 71.308 89 71.308C91.0727 71.308 92.692 72.992 92.692 75C92.692 77.008 91.0727 78.7568 89 78.7568ZM92.8216 72.0852C92.3682 72.0852 91.9795 71.6966 91.9795 71.2432C91.9795 70.7898 92.3682 70.4011 92.8216 70.4011C93.275 70.4011 93.6636 70.7898 93.6636 71.2432C93.6636 71.6966 93.275 72.0852 92.8216 72.0852Z" fill="#131313"/>
<g clip-path="url(#clip1_894_6191)">
<path d="M165.268 72.749H162.452V81.7498H165.268V72.749Z" fill="#131313"/>
<path d="M175.413 76.9243V81.7501H172.598V77.2508C172.598 76.0677 172.456 75.1093 171.077 75.1093C169.699 75.1093 169.559 76.0698 169.559 77.2508V81.7501H166.743V72.7494H169.559V74.0364C169.983 73.1013 170.785 72.5098 172.267 72.5098C172.381 72.5098 172.492 72.514 172.598 72.5204C175.14 72.6709 175.413 74.5834 175.413 76.9243Z" fill="#131313"/>
<path d="M165.475 69.8614C165.475 68.9709 164.752 68.25 163.861 68.25C162.971 68.25 162.25 68.9709 162.25 69.8614C162.25 70.752 162.971 71.4729 163.861 71.4729C164.752 71.4729 165.473 70.752 165.473 69.8614H165.475Z" fill="#131313"/>
</g>
<path fill-rule="evenodd" clip-rule="evenodd" d="M255.448 69.5368C256.159 69.726 256.717 70.2877 256.907 71.0037C257.25 72.2989 257.247 74.9999 257.247 74.9999C257.247 74.9999 257.247 77.7009 256.904 78.9961C256.714 79.7092 256.156 80.2709 255.445 80.463C254.159 80.8094 248.999 80.8094 248.999 80.8094C248.999 80.8094 243.838 80.8094 242.552 80.463C241.841 80.2738 241.283 79.7121 241.093 78.9961C240.75 77.7009 240.75 74.9999 240.75 74.9999C240.75 74.9999 240.75 72.2989 241.096 71.0008C241.286 70.2877 241.844 69.726 242.555 69.5339C243.841 69.1875 249.001 69.1875 249.001 69.1875C249.001 69.1875 254.159 69.1875 255.448 69.5368ZM247.313 72.5463V77.4535L251.627 74.9999L247.313 72.5463Z" fill="#131313"/>
</g>
<defs>
<clipPath id="clip0_894_6191">
<rect width="258" height="18" fill="white" transform="translate(0 66)"/>
</clipPath>
<clipPath id="clip1_894_6191">
<rect width="18" height="18" fill="white" transform="translate(160 66)"/>
</clipPath>
</defs>
</svg>
