<svg width="180" height="64" viewBox="0 0 180 64" fill="none" xmlns="http://www.w3.org/2000/svg">
<path d="M28.0291 26.038L31.0891 34.552H31.3591C32.4031 31.744 33.4111 28.99 34.3651 26.038C34.4191 25.84 34.4551 25.606 34.4551 25.462C34.4551 25.12 34.1491 25.048 33.3571 25.048V24.364C34.0591 24.382 34.8691 24.382 35.4451 24.382C35.9851 24.382 36.7231 24.382 37.1911 24.364V25.048C36.4711 25.066 36.0211 25.318 35.7151 26.128C34.4551 29.746 32.9611 33.58 31.5391 37.198H30.3511L26.2291 26.398C25.8691 25.408 25.4551 25.066 24.5911 25.012V24.364C25.2211 24.382 26.1931 24.382 26.9131 24.382C27.6151 24.382 28.4971 24.382 29.1451 24.364V25.03L28.3891 25.066C28.0111 25.066 27.7771 25.426 28.0291 26.038ZM39.6854 25.768C39.0734 25.768 38.5694 25.3 38.5694 24.724C38.5694 24.076 39.0734 23.644 39.7034 23.644C40.3154 23.644 40.7834 24.076 40.7834 24.724C40.7834 25.3 40.3154 25.768 39.6854 25.768ZM40.6214 28.144V35.758C40.6214 36.424 41.2874 36.532 41.8634 36.586V37.18L39.8654 37.162C39.2534 37.162 38.2454 37.162 37.7234 37.18V36.568C38.2634 36.55 38.9114 36.316 38.9114 35.812V29.872C38.9114 29.152 38.7494 29.062 38.3174 29.062H37.7774V28.522L40.2074 27.874C40.5494 27.802 40.6214 27.838 40.6214 28.144ZM43.219 32.734C43.219 29.908 45.271 27.856 47.773 27.856C49.951 27.856 51.319 29.512 51.319 31.564C51.319 31.654 51.319 31.978 51.283 32.266H44.947C44.893 35.11 46.477 36.208 48.205 36.208C49.123 36.208 50.131 35.884 50.815 35.38L51.247 35.974C50.419 36.784 49.159 37.414 47.557 37.414C44.911 37.414 43.219 35.452 43.219 32.734ZM47.521 28.774C46.135 28.774 45.235 29.89 45.055 31.366L49.519 31.33C49.537 29.872 48.799 28.774 47.521 28.774ZM65.5418 28.054V28.612C64.8938 28.702 64.5158 28.864 64.2278 29.782L62.0858 37.216H61.0598L59.0798 31.006H58.8998L56.9198 37.216H55.9658L53.8238 29.89C53.5358 28.972 53.2118 28.702 52.4018 28.612V28.072L54.1478 28.09C54.5618 28.09 55.6598 28.09 56.1098 28.072V28.612C55.6238 28.648 55.2998 28.756 55.4438 29.296L56.6858 34.102H56.8478L58.8278 28.144H59.7098L61.6898 34.102H61.8878L63.0758 29.44C63.2018 28.882 63.2558 28.648 62.4638 28.648V28.072L63.9578 28.09C64.2638 28.09 65.1638 28.072 65.5418 28.054ZM85.5945 35.578C85.6125 36.424 86.3145 36.55 86.9625 36.586V37.216C86.4945 37.198 85.3065 37.198 84.6945 37.198C83.8665 37.198 83.1465 37.198 82.5165 37.216V36.586C83.1825 36.568 83.7765 36.316 83.8125 35.614L83.6325 26.974H83.4525L79.6185 36.388H78.5565L74.8125 27.064H74.6325L74.4345 35.614C74.4345 36.37 74.9745 36.568 75.6585 36.586V37.216C75.0285 37.198 74.4705 37.198 73.7685 37.198C73.2645 37.198 72.1665 37.198 71.6625 37.216V36.604C72.3285 36.568 73.1385 36.334 73.1565 35.578L73.4445 25.984C73.4445 25.156 72.9045 25.03 72.1665 24.994V24.364H75.5325L79.2945 33.94H79.5105L83.3445 24.364H86.6205V24.994C85.8825 25.03 85.3605 25.3 85.3245 26.254L85.5945 35.578ZM93.3423 27.856C95.8263 27.856 97.7703 29.674 97.7703 32.536C97.7703 35.416 95.8263 37.414 93.0903 37.414C90.5523 37.414 88.5723 35.632 88.6083 32.716C88.6263 29.818 90.7323 27.856 93.3423 27.856ZM96.0423 32.878C95.9883 31.024 95.1963 28.828 92.9463 28.828C91.3803 28.828 90.2643 30.088 90.3183 32.446C90.3543 34.408 91.3623 36.424 93.4323 36.424C95.5743 36.424 96.0423 34.498 96.0423 32.878ZM102.067 28.144V29.71H102.247C102.499 29.098 103.453 27.892 104.389 27.892C105.289 27.892 105.685 28.342 105.685 28.9C105.685 29.242 105.487 29.746 104.893 29.836C104.695 29.692 104.281 29.422 103.831 29.494C103.309 29.566 102.535 29.872 102.067 31.042V35.776C102.067 36.442 102.679 36.532 103.255 36.586V37.216C102.643 37.198 101.851 37.18 101.275 37.18C100.681 37.18 99.8714 37.198 99.3314 37.216V36.568C99.8894 36.55 100.357 36.406 100.357 35.902V29.98C100.357 29.224 100.159 29.134 99.7274 29.116H99.2954V28.54L101.725 27.892C101.941 27.838 102.067 27.874 102.067 28.144ZM106.676 32.734C106.676 29.908 108.728 27.856 111.23 27.856C113.408 27.856 114.776 29.512 114.776 31.564C114.776 31.654 114.776 31.978 114.74 32.266H108.404C108.35 35.11 109.934 36.208 111.662 36.208C112.58 36.208 113.588 35.884 114.272 35.38L114.704 35.974C113.876 36.784 112.616 37.414 111.014 37.414C108.368 37.414 106.676 35.452 106.676 32.734ZM110.978 28.774C109.592 28.774 108.692 29.89 108.512 31.366L112.976 31.33C112.994 29.872 112.256 28.774 110.978 28.774Z" fill="#131313"/>
<path d="M138.999 41.0149C139.489 41.5049 140.279 41.5049 140.769 41.0149L149.079 32.7049C149.469 32.3149 149.469 31.6849 149.079 31.2949L140.769 22.9849C140.279 22.4949 139.489 22.4949 138.999 22.9849C138.509 23.4749 138.509 24.2649 138.999 24.7549L146.239 32.0049L138.989 39.2549C138.509 39.7349 138.509 40.5349 138.999 41.0149Z" fill="#131313"/>
<rect x="0.5" y="0.5" width="179.001" height="63" rx="31.5" stroke="#131313"/>
</svg>
