<svg width="220" height="22" viewBox="0 0 220 22" fill="none" xmlns="http://www.w3.org/2000/svg">
<path d="M9.94519 3.59624C10.3509 4.58149 12.2171 9.15999 12.4837 9.8033L7.23287 9.78591C7.51685 9.13681 9.51632 4.58149 9.94519 3.60204M8.91358 0.576747L0 20.8091L2.54426 20.8207L6.35194 11.965C6.35194 11.965 12.9589 11.9882 13.3124 11.994C13.4515 12.3302 16.9578 20.8786 16.9578 20.8786L19.6412 20.8902L11.1912 0.594133H8.91938L8.91358 0.576747Z" fill="white"/>
<path d="M41.56 0.626009C41.56 0.626009 35.0053 15.5612 34.5126 16.6855C34.0258 15.5612 27.5811 0.573851 27.5811 0.573851L24.353 0.562257L24.2777 20.8294L26.6886 20.841L26.7524 4.4395L33.8867 20.8641H35.0806C35.0806 20.8641 41.3572 6.50272 42.2265 4.50904L42.1628 20.8931L44.5737 20.9047L44.6491 0.637603L41.5658 0.626009H41.56Z" fill="white"/>
<path d="M86.3831 11.4261C89.5591 10.8987 91.2514 9.09624 91.2572 6.17527C91.2688 2.55304 88.8288 0.710044 83.9895 0.692657L75.528 0.657885L75.4932 9.33386L70.1323 9.31647C69.5412 3.84545 65.4553 0.124689 59.793 0.101506C53.6323 0.0783241 49.3088 4.4366 49.2856 10.69C49.2625 16.955 53.5512 21.3423 59.7119 21.3655C65.6118 21.3886 69.8136 17.3897 70.1845 11.5594L75.4874 11.5767L75.4526 20.925L77.8636 20.9366L77.8984 11.5883L83.8678 11.6115C84.0301 11.8897 89.3678 20.9772 89.3678 20.9772L92.1265 20.9888C92.1265 20.9888 86.7772 12.081 86.3831 11.4261ZM59.7235 19.1226C54.9769 19.1052 51.6734 15.6452 51.6966 10.7016C51.714 5.76378 55.0464 2.32701 59.7872 2.3444C64.528 2.36179 67.8257 5.82754 67.8083 10.7654C67.7909 15.709 64.47 19.1458 59.7235 19.1284M77.881 9.31647L77.9042 2.88338L84.5111 2.90657C88.4173 2.91816 88.8346 5.17263 88.8288 6.14049C88.8288 7.10256 88.3941 9.35704 84.4879 9.33965L77.881 9.31647Z" fill="white"/>
<path d="M96.8383 0.573851L96.763 20.841L111.043 20.8931L111.049 18.6502L99.1913 18.6039L99.2145 11.5043L110 11.5449L110.006 9.30198L99.2261 9.26142L99.2493 2.82254L110.667 2.86889L110.672 0.626009L96.8383 0.573851Z" fill="white"/>
<path d="M115.761 0.336236L115.686 20.6034H117.024L117.065 10.7103L121.875 10.7277C124.767 10.7393 127.862 9.39471 127.874 5.59282C127.891 0.886811 123.399 0.36521 121.469 0.359415L115.767 0.336236M117.407 1.51853L121.707 1.53592C123.938 1.54171 126.541 2.61389 126.529 5.58702C126.517 8.52538 124.083 9.56279 121.8 9.55699L117.076 9.53961L117.105 1.51853H117.413M135.831 0.411582L126.912 20.6439H128.297C128.297 20.6439 132.041 11.939 132.116 11.7709L140.722 11.8057C140.798 11.9795 144.368 20.7135 144.368 20.7135H145.904L137.454 0.417374H135.837M136.26 2.13866C136.26 2.13866 136.416 1.76774 136.544 1.48376C136.781 2.0807 140.091 10.2698 140.241 10.6408L132.638 10.6118C132.806 10.2293 136.26 2.13287 136.26 2.13287M148.089 10.5828C148.065 16.842 152.348 21.2351 158.503 21.2583C161.5 21.2698 163.916 20.1513 165.701 17.9432L165.794 17.8273L164.681 16.9753L164.594 17.0912C162.89 19.3167 160.248 20.0933 158.503 20.0875C153.142 20.0644 149.41 16.1639 149.433 10.5944C149.456 5.02485 153.212 1.15341 158.573 1.1708C160.781 1.1766 162.786 2.13286 164.079 3.7846L164.171 3.90631L165.29 2.96742L165.191 2.86311C163.563 0.97375 161.343 0.0116832 158.579 9.20392e-05C152.424 -0.0230902 148.106 4.33518 148.083 10.5886M202.289 10.7914C202.266 17.0507 206.548 21.4437 212.703 21.4669C215.7 21.4785 218.116 20.3599 219.907 18.1518L220 18.0359L218.887 17.184L218.8 17.2999C217.096 19.5254 214.459 20.302 212.709 20.2962C207.348 20.273 203.616 16.3726 203.633 10.803C203.656 5.23349 207.418 1.36205 212.779 1.37944C214.987 1.38524 216.992 2.3415 218.285 3.99324L218.377 4.11495L219.502 3.17606L219.403 3.07175C217.775 1.18239 215.549 0.220324 212.785 0.208733C206.63 0.185551 202.318 4.54382 202.289 10.7972M171.346 20.8178H172.702L172.778 0.556471H171.422L171.346 20.8178ZM178.538 0.573857L178.463 20.841H179.814L179.854 10.9479L189.66 10.9885V9.81779L179.86 9.78302L179.889 1.76194L190.437 1.80252V0.626015L178.538 0.579649M196.076 20.9163H197.426L197.502 0.654994H196.151L196.076 20.9163Z" fill="white"/>
</svg>
