<svg width="482" height="123" viewBox="0 0 482 123" fill="none" xmlns="http://www.w3.org/2000/svg">
<path d="M28.672 52.088C12.736 52.088 2.816 40.12 2.816 26.232C2.816 12.216 12.928 0.311996 29.76 0.311996C38.208 0.311996 45.568 3.256 52.032 9.592C51.712 11.96 50.24 13.88 47.68 13.88C45.376 13.88 44.16 12.152 43.072 10.168C40.256 5.816 35.392 1.592 29.504 1.592C19.328 1.592 12.48 11.384 12.48 23.736C12.48 38.904 21.76 47.736 33.024 47.736C42.816 47.736 50.752 40.888 52.608 29.496H53.696C51.712 44.216 40.832 52.088 28.672 52.088ZM66.264 52.088C61.208 52.088 56.728 48.824 56.728 43.32C56.728 36.92 62.616 34.936 68.568 33.016C73.816 31.352 79.448 29.752 79.448 23.864C79.448 20.408 77.272 18.296 74.072 18.296C69.912 18.296 67.608 21.688 66.264 23.672C65.112 25.336 63.96 26.68 61.784 26.68C59.672 26.68 58.52 25.208 58.456 21.944C62.936 19.064 68.504 17.08 73.688 17.08C81.688 17.08 87.064 21.176 87.064 28.792V40.44C87.064 45.624 87.384 47.416 88.536 51H79.768C79.384 48.056 79.192 44.6 79.192 41.272C76.76 48.888 71.192 52.088 66.264 52.088ZM64.664 41.336C64.664 45.56 67.416 47.672 70.488 47.672C74.456 47.672 79.192 44.088 79.192 35.64V28.856C77.912 31.16 75.288 31.992 71.96 33.336C67.672 35.32 64.664 37.176 64.664 41.336ZM95.346 51C95.73 48.312 95.858 45.944 95.858 42.552V26.552C95.858 23.16 95.73 20.792 95.346 18.104H104.37C103.986 20.792 103.858 23.16 103.858 26.552V28.28C106.482 20.216 111.154 17.208 117.746 17.208C118.13 18.04 118.386 18.872 118.386 19.64C118.386 21.752 116.85 23.672 114.226 23.672C110.258 23.672 105.842 24.312 103.858 30.456V42.552C103.858 45.944 103.986 48.312 104.37 51H95.346ZM135.318 52.088C126.422 52.088 118.549 44.792 118.549 34.296C118.549 23.8 126.55 17.08 135.446 17.08C143.51 17.08 150.486 22.52 150.742 31.096H126.87V31.16C126.87 39.736 131.35 47.928 138.966 47.928C144.406 47.928 149.014 43.896 150.678 37.688L151.638 37.88C149.333 46.968 142.678 52.088 135.318 52.088ZM126.934 29.752H142.294C142.102 22.136 139.606 18.296 135.253 18.296C130.518 18.296 127.254 22.712 126.934 29.752ZM172.443 52.088C163.547 52.088 155.674 44.792 155.674 34.296C155.674 23.8 163.675 17.08 172.571 17.08C180.635 17.08 187.611 22.52 187.867 31.096H163.995V31.16C163.995 39.736 168.475 47.928 176.091 47.928C181.531 47.928 186.139 43.896 187.803 37.688L188.763 37.88C186.458 46.968 179.803 52.088 172.443 52.088ZM164.059 29.752H179.419C179.227 22.136 176.731 18.296 172.378 18.296C167.643 18.296 164.379 22.712 164.059 29.752ZM194.221 51C194.605 48.312 194.733 45.944 194.733 42.552V26.552C194.733 23.16 194.605 20.792 194.221 18.104H203.245C202.861 20.792 202.733 23.16 202.733 26.552V28.28C205.357 20.216 210.029 17.208 216.621 17.208C217.005 18.04 217.261 18.872 217.261 19.64C217.261 21.752 215.725 23.672 213.101 23.672C209.133 23.672 204.717 24.312 202.733 30.456V42.552C202.733 45.944 202.861 48.312 203.245 51H194.221ZM233.716 52.088C226.932 52.088 219.828 48.952 217.908 41.72C218.74 40.184 219.892 39.48 221.236 39.48C222.9 39.48 224.436 40.568 225.268 42.424C227.06 48.376 230.644 50.744 234.548 50.744C238.068 50.744 240.884 48.888 240.884 45.752C240.884 37.368 219.956 37.176 219.956 25.848C219.956 20.344 224.884 17.08 232.052 17.08C237.364 17.08 242.932 19.064 246.772 22.648C246.708 24.824 245.556 26.488 243.444 26.488C241.524 26.488 240.308 25.144 239.348 23.672C237.556 20.728 235.188 18.36 231.54 18.36C228.276 18.36 225.844 20.088 225.844 22.84C225.844 30.904 247.476 31.16 247.476 42.424C247.476 48.696 240.756 52.088 233.716 52.088Z" fill="black"/>
<path d="M2.91 98H27.06V100.04H2.91V98ZM4.41 102.47H25.74V104.42H4.41V102.47ZM1.71 106.97H28.26V109.01H1.71V106.97ZM1.5 111.77H28.56V113.78H1.5V111.77ZM13.77 99.14H16.08V108.44H13.77V99.14ZM6.75 94.58L8.7 93.77C9.81 94.88 10.86 96.44 11.34 97.55L9.24 98.51C8.85 97.37 7.83 95.72 6.75 94.58ZM20.85 93.77L23.16 94.49C22.2 95.87 21.06 97.31 20.19 98.3L18.21 97.61C19.11 96.59 20.22 94.91 20.85 93.77ZM13.65 108.62H16.02C15.21 115.64 13.02 119.66 2.25 121.4C2.07 120.83 1.53 119.9 1.11 119.42C11.25 117.95 12.99 114.62 13.65 108.62ZM16.68 112.37C18.39 116.69 22.44 118.76 29.01 119.39C28.5 119.87 27.9 120.83 27.63 121.46C20.7 120.56 16.62 118.04 14.61 112.79L16.68 112.37ZM56.07 110.45H31.17V108.77H56.07V110.45ZM53.52 122.09H34.35V116.54H50.91V114.32H34.35V112.67H52.95V118.19H36.36V120.44H53.52V122.09ZM53.43 104.33L53.61 105.95C51.54 106.31 49.11 106.43 45.51 106.43H34.35V100.7H50.76V98.27H34.35V96.62H52.8V102.32H36.36V104.78H45.54C48.84 104.78 51.06 104.69 53.43 104.33ZM70.2192 117.56C70.2192 114.83 73.0992 113.21 79.4892 113.21C85.8192 113.21 88.7292 114.83 88.7292 117.56C88.7292 120.29 85.8192 121.94 79.4892 121.94C73.0992 121.94 70.2192 120.29 70.2192 117.56ZM72.1692 117.56C72.1692 119.48 74.8392 120.26 79.4892 120.26C84.0792 120.26 86.8092 119.48 86.8092 117.56C86.8092 115.67 84.0792 114.86 79.4892 114.86C74.8392 114.86 72.1692 115.67 72.1692 117.56ZM82.9692 109.55L81.7992 111.08C78.5892 110 76.9992 108.5 76.3692 107.75C75.8892 107.12 75.5292 106.52 75.3792 105.8H74.9292C74.8092 106.52 74.5092 107.12 74.0892 107.72C73.3692 108.8 71.4492 110.66 68.4192 111.98L67.2192 110.45C72.6792 108.2 74.1492 104.33 74.1492 102.74V102.62H67.6092V100.94H82.4592V102.62H76.1592V102.74C76.1592 104.33 77.1792 107.66 82.9692 109.55ZM88.3092 112.22H86.2692V96.02H88.3092V105.26H93.1392V107H88.3092V112.22ZM70.2792 97.49L70.6692 95.87C73.6392 96.86 76.9092 96.53 79.8492 96.53V98.21C76.5492 98.27 72.6492 98.36 70.2792 97.49ZM107.021 103.22H106.541C106.391 103.79 106.211 104.42 105.791 104.99C104.411 106.91 102.251 108.71 97.0613 110.42L96.0113 108.86C103.961 106.46 105.641 102.8 105.761 99.53H96.7913V97.79H116.711V99.53H107.711C107.891 102.77 109.751 106.43 117.521 108.41L116.471 110C111.221 108.47 109.001 106.67 107.771 104.9C107.441 104.42 107.201 103.79 107.021 103.22ZM119.051 118.46H94.4513V116.72H105.731V110.45H107.771V116.72H119.051V118.46ZM125.064 97.85L125.454 96.29C128.424 97.28 131.694 96.98 134.634 96.98V98.54C131.334 98.6 127.434 98.69 125.064 97.85ZM138.174 103.49H121.404V101.78H138.174V103.49ZM123.294 111.77C123.294 108.53 125.604 106.19 129.864 106.19C134.184 106.19 136.464 108.53 136.464 111.77C136.464 114.95 134.184 117.29 129.864 117.29C125.604 117.29 123.294 114.95 123.294 111.77ZM125.154 111.77C125.154 113.93 126.894 115.58 129.864 115.58C132.864 115.58 134.604 113.93 134.604 111.77C134.604 109.55 132.864 107.9 129.864 107.9C126.894 107.9 125.154 109.55 125.154 111.77ZM143.094 121.16H141.054V96.02H143.094V106.88H147.924V108.59H143.094V121.16ZM171.05 103.82L171.32 105.56C168.92 106.16 166.16 106.34 161.63 106.34H152.27V96.77H154.28V104.6H161.66C165.68 104.6 168.08 104.48 171.05 103.82ZM173.99 112.04H149.09V110.3H173.99V112.04ZM152.27 114.44H154.28V120.05H171.74V121.79H152.27V114.44ZM192.429 106.07H192.039C192.009 106.46 191.769 107.27 191.529 107.96C190.929 109.79 188.979 113.21 184.749 116.48L183.369 115.19C188.559 111.47 191.259 106.25 191.259 101.06V97.79H193.179V101.06C193.179 106.01 195.309 110.72 200.589 114.65L199.149 116C195.309 112.67 193.479 109.61 192.909 108.02C192.669 107.27 192.489 106.46 192.429 106.07ZM205.629 121.16H203.619V96.02H205.629V106.13H210.459V107.87H205.629V121.16ZM234.349 121.79H216.559V113.51H234.349V121.79ZM234.349 111.8H232.339V109.07C229.459 109.85 225.859 110.21 220.429 110.21H213.829V102.98H224.269V98.93H213.829V97.19H226.279V104.63H215.869V108.47H220.459C225.649 108.47 229.339 108.14 232.339 107.27V96.02H234.349V103.22H239.179V104.93H234.349V111.8ZM232.339 120.05V115.25H218.599V120.05H232.339ZM262.606 103.16L262.786 104.87C260.716 105.23 258.286 105.35 254.686 105.35H243.676V96.92H262.276V98.63H245.686V103.61H254.716C258.016 103.61 260.236 103.52 262.606 103.16ZM265.396 109.61H240.496V107.87H265.396V109.61ZM262.846 122.09H243.676V116.09H260.236V113.66H243.676V111.95H262.276V117.83H245.686V120.35H262.846V122.09ZM292.565 119H290.405L288.305 113.12H279.515L277.415 119H275.375L282.905 98.81H284.945L292.565 119ZM280.145 111.32H287.645L283.895 100.91L280.145 111.32ZM297.495 100.91V119H295.485V98.81H298.665L304.125 115.88L309.615 98.81H312.765V119H310.785V100.91H310.725L304.815 119H303.465L297.525 100.91H297.495ZM318.207 108.86C318.207 113.33 319.797 117.41 324.567 117.41C329.427 117.41 331.017 113.33 331.017 108.86C331.017 104.45 329.427 100.31 324.567 100.31C319.797 100.31 318.207 104.45 318.207 108.86ZM333.087 108.86C333.087 115.04 330.207 119.27 324.567 119.27C318.957 119.27 316.137 115.04 316.137 108.86C316.137 102.71 318.957 98.45 324.567 98.45C330.207 98.45 333.087 102.71 333.087 108.86ZM338.452 100.61V107.78H342.292C345.082 107.78 348.472 107.36 348.472 104.21C348.472 100.34 344.602 100.61 342.532 100.61H338.452ZM343.492 109.58H338.452V119H336.442V98.81H343.282C346.972 98.81 350.602 100.01 350.602 104.21C350.602 106.46 348.922 107.93 346.402 108.53V108.59C349.192 109.07 349.792 111.05 350.062 113.15C350.452 116.09 350.302 117.65 351.172 119H348.922C348.442 117.53 348.262 115.76 348.082 114.17C347.572 110.84 347.422 109.58 343.492 109.58ZM368.336 117.17V119H354.986V98.81H367.916V100.61H356.996V107.6H367.436V109.43H356.996V117.17H368.336ZM386.654 100.61H382.514V108.65H386.654C389.564 108.65 392.144 107.39 392.144 104.33C392.144 101.24 389.564 100.61 386.654 100.61ZM382.514 110.48V119H380.504V98.81H385.394C389.654 98.81 394.214 99.14 394.214 104.33C394.214 109.49 389.564 110.48 385.394 110.48H382.514ZM412.888 119H410.728L408.628 113.12H399.838L397.738 119H395.698L403.228 98.81H405.268L412.888 119ZM400.468 111.32H407.968L404.218 100.91L400.468 111.32ZM429.457 99.65L429.217 101.57C427.837 100.73 426.547 100.28 423.907 100.28C419.617 100.28 416.587 103.7 416.587 108.89C416.587 114.17 419.527 117.41 424.177 117.41C427.027 117.41 428.857 116.51 430.057 115.76L430.177 117.59C429.037 118.34 427.267 119.27 424.177 119.27C418.477 119.27 414.487 115.37 414.487 108.89C414.487 102.56 418.597 98.45 423.907 98.45C426.007 98.45 427.417 98.6 429.457 99.65ZM436.351 119H434.401V98.81H436.351V119ZM443.92 109.31V119H441.91V98.81H454.18V100.61H443.92V107.48H453.85V109.31H443.92ZM460.814 119H458.864V98.81H460.814V119ZM480.023 99.65L479.783 101.57C478.403 100.73 477.113 100.28 474.473 100.28C470.183 100.28 467.153 103.7 467.153 108.89C467.153 114.17 470.093 117.41 474.743 117.41C477.593 117.41 479.423 116.51 480.623 115.76L480.743 117.59C479.603 118.34 477.833 119.27 474.743 119.27C469.043 119.27 465.053 115.37 465.053 108.89C465.053 102.56 469.163 98.45 474.473 98.45C476.573 98.45 477.983 98.6 480.023 99.65Z" fill="black"/>
</svg>
