<svg width="761" height="76" viewBox="0 0 761 76" fill="none" xmlns="http://www.w3.org/2000/svg">
<g filter="url(#filter0_d_501_1648)">
<path d="M24.568 53.088C15.992 53.088 8.12 48.16 4.92 39.264C5.368 37.536 6.712 36.192 8.76 36.192C11.768 36.192 13.176 39.2 14.264 41.696C15.672 47.712 19.384 51.68 25.336 51.68C30.776 51.68 34.68 48.352 34.68 43.424C34.68 30.432 7.672 29.28 7.672 13.92C7.672 6.176 14.776 1.312 23.288 1.312C30.264 1.312 36.6 4.704 40.376 10.848C39.8 12.64 38.52 13.984 36.536 13.984C34.232 13.984 32.952 12.256 31.864 10.144C30.328 5.792 27.128 2.592 22.456 2.592C17.976 2.592 14.52 5.536 14.52 9.824C14.52 21.856 41.848 22.752 41.848 38.944C41.848 47.584 33.912 53.088 24.568 53.088ZM58.784 53.088C53.024 53.088 49.568 49.12 49.568 42.656V20.576H44.512V19.104H45.28C50.976 19.104 51.296 14.88 51.296 5.984H59.36C59.36 11.744 57.44 17.376 50.208 19.104H68.448V20.576H57.568V41.824C57.568 46.24 59.36 48.928 62.304 48.928C65.952 48.928 68.32 45.28 69.152 38.496H70.176C69.088 48.032 65.184 53.088 58.784 53.088ZM91.346 53.024C81.938 53.024 73.362 46.688 73.362 35.488C73.362 24.352 81.938 18.08 91.346 18.08C100.754 18.08 109.394 24.352 109.394 35.488C109.394 46.688 100.754 53.024 91.346 53.024ZM82.258 35.488C82.258 46.56 85.458 51.744 91.346 51.744C97.17 51.744 100.498 46.56 100.434 35.488C100.434 24.416 97.234 19.296 91.346 19.296C85.458 19.296 82.194 24.416 82.258 35.488ZM115.534 52C115.918 49.312 116.046 46.944 116.046 43.552V27.552C116.046 24.16 115.918 21.792 115.534 19.104H124.558C124.174 21.792 124.046 24.16 124.046 27.552V29.28C126.67 21.216 131.342 18.208 137.934 18.208C138.318 19.04 138.574 19.872 138.574 20.64C138.574 22.752 137.038 24.672 134.414 24.672C130.446 24.672 126.03 25.312 124.046 31.456V43.552C124.046 46.944 124.174 49.312 124.558 52H115.534ZM143.607 67.808C139.895 67.808 136.886 66.336 134.454 64.416C134.902 61.664 136.31 60.384 138.294 60.384C142.071 60.384 142.647 64.928 146.871 64.928C150.007 64.928 152.311 62.624 154.807 56.096L156.471 52H151.351L143.415 28.576C142.135 24.544 140.727 21.28 139.703 19.104H150.391C150.199 23.2 151.415 27.296 152.503 30.752L158.327 47.328L163.063 35.168C164.215 32.352 164.855 30.176 164.855 28.448C164.855 25.184 162.167 24.16 162.167 21.344C162.167 19.36 163.575 18.272 165.367 18.272C166.519 18.272 167.671 18.656 168.631 19.552C168.695 21.344 168.631 21.92 168.503 22.752C168.311 25.504 167.607 27.552 166.071 31.52L155.831 57.056C152.695 64.928 149.431 67.808 143.607 67.808ZM203.096 53.024C193.688 53.024 185.112 46.688 185.112 35.488C185.112 24.352 193.688 18.08 203.096 18.08C212.504 18.08 221.144 24.352 221.144 35.488C221.144 46.688 212.504 53.024 203.096 53.024ZM194.008 35.488C194.008 46.56 197.208 51.744 203.096 51.744C208.92 51.744 212.248 46.56 212.184 35.488C212.184 24.416 208.984 19.296 203.096 19.296C197.208 19.296 193.944 24.416 194.008 35.488ZM227.68 52C228.064 49.312 228.192 46.944 228.192 43.552V20.576H223.584V19.104H228.192V14.944C228.192 5.472 233.568 0.799999 241.312 0.799999C244.704 0.799999 248.8 1.952 253.6 4.256C253.088 6.752 251.936 8.672 249.504 8.672C247.648 8.672 246.304 7.648 245.216 6.368C243.04 4.192 241.12 2.272 239.072 2.272C235.808 2.272 234.272 5.856 234.848 10.72L236.256 19.104H245.024V20.576H236.256V43.552C236.256 46.944 236.384 49.312 236.768 52H227.68ZM259.594 52C260.554 50.208 262.602 45.216 264.714 38.496L274.314 7.776C274.826 6.112 275.082 3.68 274.762 2.08H284.298L295.754 40.288C297.226 45.472 298.89 49.376 299.978 52H288.01C287.882 49.312 287.178 44.576 286.09 40.928L284.17 34.4H267.53L267.082 35.872C264.906 42.72 264.01 49.376 264.01 52H259.594ZM268.042 32.8H283.658L276.042 7.072L268.042 32.8ZM347.646 52C348.03 49.312 348.158 46.944 348.158 43.552V28.896C348.158 24.224 346.238 21.664 342.974 21.664C339.966 21.664 337.022 23.968 335.038 27.68C335.102 28.064 335.102 28.448 335.102 28.896V43.552C335.102 46.944 335.229 49.312 335.678 52H326.59C326.974 49.312 327.102 46.944 327.102 43.552V28.896C327.102 24.224 325.246 21.664 321.982 21.664C318.91 21.664 316.03 23.968 314.046 27.616V43.552C314.046 46.944 314.174 49.312 314.558 52H305.534C305.918 49.312 306.046 46.944 306.046 43.552V27.552C306.046 24.16 305.918 21.792 305.534 19.104H314.558C314.238 21.28 314.11 23.2 314.046 25.632C316.798 21.088 321.406 18.08 326.142 18.08C330.878 18.08 334.014 21.024 334.91 26.08C337.534 21.28 342.27 18.08 347.134 18.08C352.702 18.08 356.158 22.112 356.158 28.896V43.552C356.158 46.944 356.286 49.312 356.67 52H347.646ZM380.596 53.024C371.188 53.024 362.612 46.688 362.612 35.488C362.612 24.352 371.188 18.08 380.596 18.08C390.004 18.08 398.644 24.352 398.644 35.488C398.644 46.688 390.004 53.024 380.596 53.024ZM371.508 35.488C371.508 46.56 374.708 51.744 380.596 51.744C386.42 51.744 389.748 46.56 389.684 35.488C389.684 24.416 386.484 19.296 380.596 19.296C374.708 19.296 371.444 24.416 371.508 35.488ZM404.784 52C405.168 49.312 405.296 46.944 405.296 43.552V27.552C405.296 24.16 405.168 21.792 404.784 19.104H413.808C413.424 21.792 413.296 24.16 413.296 27.552V29.28C415.92 21.216 420.592 18.208 427.184 18.208C427.568 19.04 427.824 19.872 427.824 20.64C427.824 22.752 426.288 24.672 423.664 24.672C419.696 24.672 415.28 25.312 413.296 31.456V43.552C413.296 46.944 413.424 49.312 413.808 52H404.784ZM444.755 53.088C435.859 53.088 427.987 45.792 427.987 35.296C427.987 24.8 435.987 18.08 444.883 18.08C452.947 18.08 459.923 23.52 460.179 32.096H436.307V32.16C436.307 40.736 440.787 48.928 448.403 48.928C453.843 48.928 458.451 44.896 460.115 38.688L461.075 38.88C458.771 47.968 452.115 53.088 444.755 53.088ZM436.371 30.752H451.731C451.539 23.136 449.043 19.296 444.691 19.296C439.955 19.296 436.691 23.712 436.371 30.752ZM486.756 53.088C480.932 53.088 476.964 49.376 475.044 44.64V58.592C475.044 61.984 475.172 64.352 475.556 67.04H466.532C466.916 64.352 467.044 61.984 467.044 58.592V27.552C467.044 24.16 466.916 21.792 466.532 19.104H475.556C475.236 21.216 475.108 23.2 475.044 25.632C477.924 20.64 482.212 18.08 486.884 18.08C495.652 18.08 500.26 26.784 500.26 35.552C500.26 44.32 495.652 53.088 486.756 53.088ZM475.044 41.056C476.004 46.304 479.46 49.44 483.3 49.44C488.996 49.44 491.876 42.528 491.876 35.68C491.876 28.832 488.996 21.92 483.172 21.92C480.1 21.92 477.092 23.904 475.044 27.424V27.552V41.056ZM513.827 53.088C508.771 53.088 504.291 49.824 504.291 44.32C504.291 37.92 510.179 35.936 516.131 34.016C521.378 32.352 527.011 30.752 527.011 24.864C527.011 21.408 524.835 19.296 521.635 19.296C517.475 19.296 515.171 22.688 513.827 24.672C512.675 26.336 511.523 27.68 509.347 27.68C507.235 27.68 506.083 26.208 506.019 22.944C510.499 20.064 516.067 18.08 521.251 18.08C529.251 18.08 534.627 22.176 534.627 29.792V41.44C534.627 46.624 534.947 48.416 536.099 52H527.331C526.947 49.056 526.755 45.6 526.755 42.272C524.323 49.888 518.755 53.088 513.827 53.088ZM512.227 42.336C512.227 46.56 514.979 48.672 518.051 48.672C522.019 48.672 526.755 45.088 526.755 36.64V29.856C525.475 32.16 522.851 32.992 519.523 34.336C515.235 36.32 512.227 38.176 512.227 42.336ZM557.944 53.024C547.704 53.024 541.112 44.832 541.112 35.488C541.112 25.568 548.216 18.08 558.776 18.08C564.152 18.08 569.464 20.384 572.984 24.736C572.536 27.36 571.32 28.512 569.464 28.512C567.096 28.512 566.136 26.784 565.368 24.8C563.896 21.28 561.656 19.296 558.52 19.296C553.976 19.296 549.624 24.096 549.624 32.48C549.624 42.784 555.128 48.928 561.656 48.928C566.968 48.928 571.576 44.896 573.24 38.752L574.2 39.008C572.088 47.456 565.816 53.024 557.944 53.024ZM579.223 52C579.607 49.312 579.735 46.944 579.735 43.552V27.552C579.735 24.16 579.607 21.792 579.223 19.104H588.311C587.927 21.792 587.799 24.16 587.799 27.552V43.552C587.799 46.944 587.927 49.312 588.311 52H579.223ZM578.583 9.632L583.767 4.576L588.951 9.632L583.767 14.688L578.583 9.632ZM597.305 52C597.689 49.312 597.817 46.944 597.817 43.552V20.576H593.209V19.104H597.817V14.944C597.817 5.472 603.897 0.799999 612.281 0.799999C616.377 0.799999 621.049 2.208 625.721 4.256C625.208 6.752 624.185 9.248 621.305 9.248C619.193 9.248 617.849 7.904 616.889 6.432C614.521 3.616 612.601 2.272 610.361 2.272C606.329 2.272 604.537 6.368 605.241 12.32L605.881 19.104H626.169C625.785 21.792 625.657 24.16 625.657 27.552V43.552C625.657 46.944 625.785 49.312 626.169 52H617.081C617.465 49.312 617.593 46.944 617.593 43.552V20.576H605.881V43.552C605.881 46.944 606.009 49.312 606.393 52H597.305ZM649.257 53.024C639.017 53.024 632.424 44.832 632.424 35.488C632.424 25.568 639.529 18.08 650.089 18.08C655.465 18.08 660.777 20.384 664.297 24.736C663.849 27.36 662.632 28.512 660.777 28.512C658.409 28.512 657.449 26.784 656.681 24.8C655.209 21.28 652.969 19.296 649.833 19.296C645.289 19.296 640.937 24.096 640.937 32.48C640.937 42.784 646.441 48.928 652.969 48.928C658.281 48.928 662.889 44.896 664.553 38.752L665.513 39.008C663.401 47.456 657.129 53.024 649.257 53.024Z" fill="white"/>
</g>
<defs>
<filter id="filter0_d_501_1648" x="-1" y="0.800781" width="766" height="75.0078" filterUnits="userSpaceOnUse" color-interpolation-filters="sRGB">
<feFlood flood-opacity="0" result="BackgroundImageFix"/>
<feColorMatrix in="SourceAlpha" type="matrix" values="0 0 0 0 0 0 0 0 0 0 0 0 0 0 0 0 0 0 127 0" result="hardAlpha"/>
<feOffset dy="4"/>
<feGaussianBlur stdDeviation="2"/>
<feComposite in2="hardAlpha" operator="out"/>
<feColorMatrix type="matrix" values="0 0 0 0 0 0 0 0 0 0 0 0 0 0 0 0 0 0 0.25 0"/>
<feBlend mode="normal" in2="BackgroundImageFix" result="effect1_dropShadow_501_1648"/>
<feBlend mode="normal" in="SourceGraphic" in2="effect1_dropShadow_501_1648" result="shape"/>
</filter>
</defs>
</svg>
